<svg xmlns="http://www.w3.org/2000/svg" viewBox="0 0 41.805 28.996"><defs><style>.a{fill:#0129ad;}</style></defs><g transform="translate(-628.676 -696.531)"><g transform="translate(628.676 705.071)"><path class="a" d="M31.577,183.025H1.689a1.689,1.689,0,0,0,0,3.377H31.577a1.689,1.689,0,0,0,0-3.377Z" transform="translate(0 -183.025)"/></g><g transform="translate(628.676 696.531)"><path class="a" d="M40.117,78.439H1.689a1.689,1.689,0,0,0,0,3.377H40.117a1.689,1.689,0,0,0,0-3.377Z" transform="translate(0 -78.439)"/></g><g transform="translate(628.676 713.61)"><path class="a" d="M40.117,287.61H1.689a1.689,1.689,0,0,0,0,3.377H40.117a1.689,1.689,0,0,0,0-3.377Z" transform="translate(0 -287.61)"/></g><g transform="translate(628.676 722.15)"><path class="a" d="M31.577,392.2H1.689a1.689,1.689,0,0,0,0,3.377H31.577a1.689,1.689,0,0,0,0-3.377Z" transform="translate(0 -392.197)"/></g></g></svg>