<svg xmlns="http://www.w3.org/2000/svg" viewBox="0 0 32.197 41.805"><defs><style>.a{fill:#0129ad;}</style></defs><g transform="translate(-297.904 -696.531)"><g transform="translate(312.315 696.531)"><path class="a" d="M237.007,0a1.689,1.689,0,0,0-1.689,1.689V40.117a1.689,1.689,0,1,0,3.377,0V1.689A1.689,1.689,0,0,0,237.007,0Z" transform="translate(-235.318)"/></g><g transform="translate(297.904 696.531)"><path class="a" d="M90.533,14.906,76.123.5a1.689,1.689,0,0,0-2.388,0L59.324,14.906a1.689,1.689,0,0,0,2.388,2.388L74.929,4.078,88.145,17.294a1.689,1.689,0,1,0,2.388-2.388Z" transform="translate(-58.829 -0.001)"/></g></g></svg>