<svg xmlns="http://www.w3.org/2000/svg" viewBox="0 0 32.199 41.807"><defs><style>.a{fill:#0129ad;}</style></defs><g transform="translate(-499.34 -696.531)"><g transform="translate(513.75 696.531)"><path class="a" d="M237.007,0a1.689,1.689,0,0,0-1.689,1.689V40.117a1.689,1.689,0,1,0,3.377,0V1.689A1.689,1.689,0,0,0,237.007,0Z" transform="translate(-235.318)"/></g><g transform="translate(499.34 720.549)"><path class="a" d="M90.534,294.642a1.689,1.689,0,0,0-2.388,0L74.929,307.858,61.713,294.642a1.689,1.689,0,0,0-2.388,2.388l14.41,14.41a1.689,1.689,0,0,0,2.388,0l14.41-14.41A1.689,1.689,0,0,0,90.534,294.642Z" transform="translate(-58.83 -294.147)"/></g></g></svg>