<svg xmlns="http://www.w3.org/2000/svg" viewBox="0 0 41.805 41.805"><defs><style>.a{fill:#0129ad;}</style></defs><g transform="translate(-224.664 -696.531)"><g transform="translate(236.193 708.058)"><path class="a" d="M150.565,141.176a9.374,9.374,0,1,0,9.374,9.374A9.385,9.385,0,0,0,150.565,141.176Zm0,15.371a6,6,0,1,1,6-6A6,6,0,0,1,150.565,156.547Z" transform="translate(-141.191 -141.176)"/></g><g transform="translate(224.664 696.531)"><path class="a" d="M35.682,6.121A20.765,20.765,0,0,0,20.9,0h0A20.9,20.9,0,0,0,6.123,35.684,20.765,20.765,0,0,0,20.9,41.806h0A21.016,21.016,0,0,0,33.612,37.5a1.689,1.689,0,1,0-2.053-2.682A17.621,17.621,0,0,1,20.9,38.428h0a17.525,17.525,0,0,1,0-35.051h0A17.546,17.546,0,0,1,38.428,20.9v1.921a4.075,4.075,0,1,1-8.151,0V20.9a1.689,1.689,0,0,0-3.377,0v1.921a7.453,7.453,0,1,0,14.906,0V20.9A20.766,20.766,0,0,0,35.682,6.121Z" transform="translate(0)"/></g></g></svg>