<svg xmlns="http://www.w3.org/2000/svg" viewBox="0 0 74.822 74.334"><defs><style>.a{fill:#0a61ff;}</style></defs><g transform="translate(-449.326 -718.537)"><g transform="translate(449.326 718.537)"><g transform="translate(0 0)"><path class="a" d="M73.9,24.742,49.17,8.829a1.063,1.063,0,1,0-1.15,1.788L72.391,26.3H66.709L38.966,8.447a2.881,2.881,0,0,0-3.11,0L8.113,26.3H2.431L37.41,3.791l4.954,3.187a1.063,1.063,0,0,0,1.15-1.788L38.56,2a2.128,2.128,0,0,0-2.3,0L.92,24.742A2,2,0,0,0,2,28.423H7.362V35.3a1.763,1.763,0,0,0,1.4,1.722v1.871a1.762,1.762,0,0,0,1.76,1.76h.146V53.67a1.063,1.063,0,0,0,2.126,0V39.585a1.063,1.063,0,0,0-1.063-1.063h-.843V37.055h7.528v1.467H17.57a1.063,1.063,0,0,0-1.063,1.063V63.068a1.063,1.063,0,0,0,1.063,1.063h.843v1.6H10.885v-1.6h.843a1.063,1.063,0,0,0,1.063-1.063V60.351a1.063,1.063,0,0,0-2.126,0v1.654h-.146a1.762,1.762,0,0,0-1.76,1.76v1.871a1.762,1.762,0,0,0-1.4,1.722V69.5H3.6a2.133,2.133,0,0,0-2.131,2.131v2.236A2.133,2.133,0,0,0,3.6,76H71.225a2.133,2.133,0,0,0,2.131-2.131V71.634A2.133,2.133,0,0,0,71.225,69.5H67.46V67.357a1.763,1.763,0,0,0-1.4-1.722V63.765a1.762,1.762,0,0,0-1.76-1.76h-.146V40.647H64.3a1.762,1.762,0,0,0,1.76-1.76V37.017a1.763,1.763,0,0,0,1.4-1.722V28.423h5.361A2,2,0,0,0,73.9,24.742Zm-36.9-14.507a.75.75,0,0,1,.81,0L62.781,26.3H12.042ZM9.488,28.423H65.334v2.6H9.488ZM43.3,65.636V63.765a1.762,1.762,0,0,0-1.76-1.76H41.4V40.648h.146a1.762,1.762,0,0,0,1.76-1.76V37.017A1.762,1.762,0,0,0,44.7,35.3V33.15h8.189V35.3a1.763,1.763,0,0,0,1.4,1.722v1.871a1.762,1.762,0,0,0,1.76,1.76h.146V62.005h-.146a1.762,1.762,0,0,0-1.76,1.76v1.871a1.763,1.763,0,0,0-1.4,1.722V69.5H44.7V67.358A1.763,1.763,0,0,0,43.3,65.636Zm-22.762,0V63.765a1.762,1.762,0,0,0-1.76-1.76h-.146V40.648h.146a1.762,1.762,0,0,0,1.76-1.76V37.017a1.763,1.763,0,0,0,1.4-1.722V33.15h8.189V35.3a1.763,1.763,0,0,0,1.4,1.722v1.871a1.762,1.762,0,0,0,1.76,1.76h.146V62.005h-.146a1.762,1.762,0,0,0-1.76,1.76v1.871a1.763,1.763,0,0,0-1.4,1.722V69.5H21.935V67.358A1.763,1.763,0,0,0,20.539,65.636Zm19.794-1.5h.843v1.6H33.647v-1.6h.843a1.063,1.063,0,0,0,1.063-1.063V39.585a1.063,1.063,0,0,0-1.063-1.063h-.843V37.055h7.528v1.467h-.843a1.063,1.063,0,0,0-1.063,1.063V63.068A1.063,1.063,0,0,0,40.332,64.131Zm-7.748-29.2H32.25V33.15H42.572v1.78H32.584ZM32.25,67.8a1.062,1.062,0,0,0,.329.053h9.654a1.061,1.061,0,0,0,.339-.056V69.5H32.25ZM9.822,34.929H9.488V33.15H19.81v1.78H9.822ZM9.488,67.8a1.06,1.06,0,0,0,.334.054h9.654a1.06,1.06,0,0,0,.334-.054V69.5H9.488V67.8ZM71.23,71.634l0,2.241h0l-67.633,0L3.6,71.629ZM65,67.852a1.063,1.063,0,0,0,.337-.055V69.5H55.013V67.8a1.059,1.059,0,0,0,.331.053Zm-7.745-29.33h-.843V37.055h7.528v1.467h-.843a1.063,1.063,0,0,0-1.063,1.063V63.068a1.063,1.063,0,0,0,1.063,1.063h.843v1.6H56.409v-1.6h.843a1.063,1.063,0,0,0,1.063-1.063V39.585A1.063,1.063,0,0,0,57.252,38.522Zm8.082-3.593H55.013V33.15H65.334Z" transform="translate(0 -1.666)"/></g></g></g></svg>