<svg xmlns="http://www.w3.org/2000/svg" viewBox="0 0 33.266 41.805"><defs><style>.a{fill:#0129ad;}</style></defs><g transform="translate(-632.92 -618.473)"><g transform="translate(632.92 618.473)"><path class="a" d="M79.6,0H58.252a5.965,5.965,0,0,0-5.959,5.959V40.117a1.689,1.689,0,0,0,2.67,1.374l13.963-9.973,13.963,9.973a1.689,1.689,0,0,0,2.67-1.374V5.959A5.965,5.965,0,0,0,79.6,0Zm2.581,36.835L69.907,28.068a1.689,1.689,0,0,0-1.963,0L55.67,36.835V5.959a2.584,2.584,0,0,1,2.581-2.581H79.6a2.584,2.584,0,0,1,2.581,2.581Z" transform="translate(-52.293)"/></g></g></svg>