<svg xmlns="http://www.w3.org/2000/svg" viewBox="0 0 41.805 34.82"><defs><style>.a{fill:#0129ad;}</style></defs><g transform="translate(-424.139 -618.473)"><g transform="translate(424.139 618.473)"><path class="a" d="M36.623,48.024H30.54l-2.992-4.488a1.689,1.689,0,0,0-1.405-.752H15.663a1.688,1.688,0,0,0-1.405.752l-2.992,4.488H5.182A5.188,5.188,0,0,0,0,53.206V72.421A5.188,5.188,0,0,0,5.182,77.6H36.623a5.188,5.188,0,0,0,5.182-5.182V53.206A5.188,5.188,0,0,0,36.623,48.024Zm1.8,24.4a1.807,1.807,0,0,1-1.8,1.8H5.182a1.807,1.807,0,0,1-1.8-1.8V53.206a1.807,1.807,0,0,1,1.8-1.8h6.987a1.689,1.689,0,0,0,1.405-.752l2.992-4.488h8.673l2.992,4.488a1.689,1.689,0,0,0,1.405.752h6.987a1.807,1.807,0,0,1,1.8,1.8V72.421Z" transform="translate(0 -42.784)"/></g><g transform="translate(436.366 628.953)"><path class="a" d="M158.424,171.141a8.676,8.676,0,1,0,8.676,8.676A8.685,8.685,0,0,0,158.424,171.141Zm0,13.974a5.3,5.3,0,1,1,5.3-5.3A5.3,5.3,0,0,1,158.424,185.115Z" transform="translate(-149.748 -171.141)"/></g></g></svg>