<svg xmlns="http://www.w3.org/2000/svg" viewBox="0 0 41.807 37.963"><defs><style>.a{fill:#0129ad;}</style></defs><g transform="translate(-293.086 -618.473)"><g transform="translate(304.614 618.473)"><path class="a" d="M170.973,24.026a1.689,1.689,0,0,0-2.388,0L148.643,43.967l-4.57-4.57a1.689,1.689,0,1,0-2.388,2.388l5.764,5.764a1.689,1.689,0,0,0,2.388,0l21.135-21.135A1.689,1.689,0,0,0,170.973,24.026Z" transform="translate(-141.19 -23.531)"/></g><g transform="translate(293.086 618.473)"><path class="a" d="M36.274,40.825a1.689,1.689,0,0,0-1.689,1.689v13.45a2.156,2.156,0,0,1-2.154,2.154H5.532a2.156,2.156,0,0,1-2.154-2.154v-26.9a2.156,2.156,0,0,1,2.154-2.154H26.667a1.689,1.689,0,0,0,0-3.377H5.532A5.538,5.538,0,0,0,0,29.063v26.9a5.538,5.538,0,0,0,5.532,5.532h26.9a5.538,5.538,0,0,0,5.532-5.532V42.513A1.689,1.689,0,0,0,36.274,40.825Z" transform="translate(0 -23.532)"/></g></g></svg>