<svg xmlns="http://www.w3.org/2000/svg" viewBox="0 0 41.805 41.805"><defs><style>.a{fill:#0129ad;}</style></defs><g transform="translate(-293.086 -105.047)"><g transform="translate(293.086 105.047)"><path class="a" d="M35.847,0H5.959A5.965,5.965,0,0,0,0,5.959V35.847a5.965,5.965,0,0,0,5.959,5.959H35.847a5.965,5.965,0,0,0,5.959-5.958V5.959A5.965,5.965,0,0,0,35.847,0Zm2.581,35.847a2.584,2.584,0,0,1-2.581,2.581H5.959a2.584,2.584,0,0,1-2.581-2.581V5.959A2.584,2.584,0,0,1,5.959,3.377H35.847a2.584,2.584,0,0,1,2.581,2.581Z"/></g><g transform="translate(305.895 117.856)"><path class="a" d="M172.57,170.182l-12.809-12.809a1.689,1.689,0,0,0-2.388,2.388l12.809,12.809a1.689,1.689,0,1,0,2.388-2.388Z" transform="translate(-156.878 -156.878)"/></g><g transform="translate(305.895 117.856)"><path class="a" d="M172.571,157.373a1.689,1.689,0,0,0-2.388,0l-12.809,12.809a1.689,1.689,0,1,0,2.388,2.388l12.809-12.809A1.689,1.689,0,0,0,172.571,157.373Z" transform="translate(-156.878 -156.878)"/></g></g></svg>