<svg xmlns="http://www.w3.org/2000/svg" viewBox="0 0 41.805 41.805"><defs><style>.a{fill:#0129ad;}</style></defs><g transform="translate(-360.531 -105.047)"><g transform="translate(360.531 105.047)"><path class="a" d="M35.683,6.122A20.9,20.9,0,1,0,6.122,35.683,20.9,20.9,0,1,0,35.683,6.122ZM20.9,38.428A17.525,17.525,0,1,1,38.428,20.9,17.545,17.545,0,0,1,20.9,38.428Z"/></g><g transform="translate(373.981 118.497)"><path class="a" d="M179.134,165.218a1.689,1.689,0,0,0-2.388,0l-11.528,11.528a1.689,1.689,0,1,0,2.388,2.388l11.528-11.528A1.689,1.689,0,0,0,179.134,165.218Z" transform="translate(-164.722 -164.723)"/></g><g transform="translate(373.981 118.497)"><path class="a" d="M179.134,176.746l-11.528-11.528a1.689,1.689,0,0,0-2.388,2.388l11.528,11.528a1.689,1.689,0,1,0,2.388-2.388Z" transform="translate(-164.723 -164.723)"/></g></g></svg>