<svg xmlns="http://www.w3.org/2000/svg" viewBox="0 0 41.807 34.814"><defs><style>.a{fill:#0129ad;}</style></defs><g transform="translate(-628.676 -108.557)"><g transform="translate(640.913 124.273)"><path class="a" d="M166.723,242.782l-6.986-6.986a1.689,1.689,0,0,0-2.388,0l-6.986,6.986a1.689,1.689,0,1,0,2.389,2.389l5.792-5.792,5.792,5.792a1.689,1.689,0,1,0,2.388-2.389Z" transform="translate(-149.867 -235.301)"/></g><g transform="translate(647.899 124.273)"><path class="a" d="M237.117,235.3a1.689,1.689,0,0,0-1.689,1.689v15.719a1.689,1.689,0,1,0,3.378,0V236.988A1.689,1.689,0,0,0,237.117,235.3Z" transform="translate(-235.428 -235.299)"/></g><g transform="translate(628.676 108.557)"><path class="a" d="M40.536,58.728a10.417,10.417,0,0,0-9.144-5.433h-.95A15.662,15.662,0,1,0,3.928,68.852a1.689,1.689,0,1,0,2.531-2.237,12.341,12.341,0,0,1-2.688-5.059,12.283,12.283,0,0,1,23.785-6.149,1.689,1.689,0,0,0,1.635,1.266h2.2A7.044,7.044,0,0,1,34.757,69.9a1.689,1.689,0,1,0,1.617,2.966A10.434,10.434,0,0,0,40.536,58.728Z" transform="translate(0 -42.818)"/></g><g transform="translate(640.913 124.273)"><path class="a" d="M166.723,242.782l-6.986-6.986a1.689,1.689,0,0,0-2.388,0l-6.986,6.986a1.689,1.689,0,1,0,2.389,2.389l5.792-5.792,5.792,5.792a1.689,1.689,0,1,0,2.388-2.389Z" transform="translate(-149.867 -235.301)"/></g></g></svg>