<svg xmlns="http://www.w3.org/2000/svg" viewBox="0 0 41.805 34.824"><defs><style>.a{fill:#0129ad;}</style></defs><g transform="translate(-224.664 -547.027)"><g transform="translate(236.902 571.49)"><path class="a" d="M166.729,342.849a1.689,1.689,0,0,0-2.389,0l-5.789,5.789-5.789-5.789a1.689,1.689,0,1,0-2.389,2.389l6.983,6.983a1.689,1.689,0,0,0,2.389,0l6.983-6.983A1.689,1.689,0,0,0,166.729,342.849Z" transform="translate(-149.879 -342.354)"/></g><g transform="translate(243.885 562.761)"><path class="a" d="M237.091,235.45a1.689,1.689,0,0,0-1.689,1.689v15.712a1.689,1.689,0,1,0,3.378,0V237.139A1.689,1.689,0,0,0,237.091,235.45Z" transform="translate(-235.402 -235.45)"/></g><g transform="translate(224.664 547.027)"><path class="a" d="M39.913,57.675a10.428,10.428,0,0,0-8.52-4.425h-.955a15.655,15.655,0,1,0-26.5,15.535,1.689,1.689,0,0,0,2.53-2.239A12.277,12.277,0,1,1,27.549,55.358a1.689,1.689,0,0,0,1.636,1.269h2.207a7.04,7.04,0,0,1,4.049,12.8,1.689,1.689,0,1,0,1.943,2.763A10.43,10.43,0,0,0,39.913,57.675Z" transform="translate(0 -42.753)"/></g></g></svg>