<svg xmlns="http://www.w3.org/2000/svg" viewBox="0 0 41.807 41.574"><defs><style>.a{fill:#0129ad;}</style></defs><g transform="translate(-628.676 -547.027)"><g transform="translate(643.984 552.236)"><path class="a" d="M207.656,76.443a10.312,10.312,0,0,0-4.042-.821h-.945a15.6,15.6,0,0,0-13.347-10.411,1.689,1.689,0,1,0-.3,3.365,12.215,12.215,0,0,1,10.752,9.15A1.689,1.689,0,0,0,201.414,79h2.19a6.992,6.992,0,0,1,6.447,9.719,1.689,1.689,0,1,0,3.111,1.317A10.382,10.382,0,0,0,207.656,76.443Z" transform="translate(-187.485 -65.204)"/></g><g transform="translate(628.676 553.972)"><path class="a" d="M35.964,113.1a1.689,1.689,0,0,0-2.164-1.011,6.971,6.971,0,0,1-2.375.419H15.772a12.2,12.2,0,0,1-6.1-22.876,1.689,1.689,0,1,0-1.635-2.956,15.578,15.578,0,0,0,7.535,29.212l.24,0H31.427a10.339,10.339,0,0,0,3.526-.622A1.689,1.689,0,0,0,35.964,113.1Z" transform="translate(0 -86.466)"/></g><g transform="translate(628.897 547.027)"><path class="a" d="M43.788,40.107l-38.2-38.2A1.689,1.689,0,0,0,3.2,4.3L41.4,42.5a1.689,1.689,0,1,0,2.389-2.389Z" transform="translate(-2.709 -1.416)"/></g></g></svg>