<svg xmlns="http://www.w3.org/2000/svg" viewBox="0 0 66.551 66.551"><defs><style>.a{fill:#0a61ff;}</style></defs><g transform="translate(-822.725 -562.723)"><path class="a" d="M16260,19366.975a21.575,21.575,0,0,1,28.549-20.422,16.7,16.7,0,1,1,16.422,13.717,16.408,16.408,0,0,1-2.973-.268,21.578,21.578,0,1,1-42,6.973Zm2.6,0a18.977,18.977,0,1,0,18.977-18.977A19,19,0,0,0,16262.6,19366.975Zm32.411-33.369a14.053,14.053,0,0,0-3.469,14.232,21.722,21.722,0,0,1,9.206,9.24,1.208,1.208,0,0,1,.341.049,14.1,14.1,0,1,0-6.078-23.521Zm-21.346,48.074a1.3,1.3,0,0,1,1.235-2.291,14.185,14.185,0,0,0,16.651-2.447,14.1,14.1,0,0,0-19.94-19.941,14.191,14.191,0,0,0-2.447,16.656,1.3,1.3,0,1,1-2.287,1.23,16.821,16.821,0,0,1-1.835-10.227,16.7,16.7,0,1,1,18.855,18.85,16.309,16.309,0,0,1-2.287.16A16.852,16.852,0,0,1,16273.664,19381.68Zm-3.894-2.891a1.3,1.3,0,0,1-.01-1.838l.01-.01a1.3,1.3,0,1,1,1.845,1.828l-.01.016a1.3,1.3,0,0,1-.92.379A1.275,1.275,0,0,1,16269.771,19378.789Zm10.506-1.449v-.764a5.674,5.674,0,0,1-4.681-5.416,1.3,1.3,0,0,1,2.6,0,2.986,2.986,0,0,0,2.078,2.725v-5.8a5.468,5.468,0,0,1,0-10.822v-.6a1.3,1.3,0,0,1,2.6,0v.6a5.666,5.666,0,0,1,4.681,5.412,1.3,1.3,0,0,1-2.6,0,2.98,2.98,0,0,0-2.082-2.721v5.8a5.47,5.47,0,0,1,0,10.826v.764a1.3,1.3,0,0,1-2.6,0Zm2.6-3.455a2.821,2.821,0,0,0,0-5.445Zm-4.677-11.215a2.985,2.985,0,0,0,2.078,2.719v-5.439A2.982,2.982,0,0,0,16278.2,19362.67Zm25.479,1.186a1.3,1.3,0,0,1,1.3-1.3,18.978,18.978,0,1,0-18.977-18.977,1.3,1.3,0,0,1-2.6,0,21.578,21.578,0,1,1,21.58,21.58A1.3,1.3,0,0,1,16303.677,19363.855Zm-5.605-16.977h-1.455a1.3,1.3,0,1,1,0-2.6h.934c-.019-.254-.028-.512-.028-.764,0-.17,0-.342.01-.506h-.915a1.3,1.3,0,1,1,0-2.6h1.372a8.5,8.5,0,0,1,7.878-6.32,7.582,7.582,0,0,1,3.893,1.09,1.3,1.3,0,1,1-1.328,2.229,4.959,4.959,0,0,0-2.564-.715,5.734,5.734,0,0,0-5.114,3.717h5.436a1.3,1.3,0,1,1,0,2.6h-6.049c-.01.164-.02.336-.02.506,0,.258.015.51.039.764h4.686a1.3,1.3,0,1,1,0,2.6h-3.975a5.68,5.68,0,0,0,5,3.461,4.965,4.965,0,0,0,2.564-.721,1.3,1.3,0,0,1,1.328,2.232,7.616,7.616,0,0,1-3.893,1.086A8.465,8.465,0,0,1,16298.071,19346.879Z" transform="translate(-15437.275 -18759.277)"/></g></svg>