<svg xmlns="http://www.w3.org/2000/svg" viewBox="0 0 85.666 55.07"><defs><style>.a{fill:#0a61ff;}</style></defs><g transform="translate(-813.621 -428.969)"><path class="a" d="M16267.652,19377.07a7.658,7.658,0,0,1-7.652-7.646v-39.768a7.665,7.665,0,0,1,7.652-7.656h70.367a7.664,7.664,0,0,1,7.646,7.656v39.768a7.657,7.657,0,0,1-7.646,7.646Zm-4.593-7.646a4.6,4.6,0,0,0,4.593,4.59h70.367a4.6,4.6,0,0,0,4.586-4.59v-6.6h-79.546Zm79.546-13.8v-2.8h-79.546v2.8Zm0-6.4v-19.566a4.6,4.6,0,0,0-4.586-4.6h-70.367a4.6,4.6,0,0,0-4.593,4.6v19.566Zm-73.423-4.275a1.53,1.53,0,0,1-1.53-1.531v-12.238a1.524,1.524,0,0,1,1.53-1.521h15.295a1.524,1.524,0,0,1,1.529,1.521v12.238a1.53,1.53,0,0,1-1.529,1.531Zm1.524-3.055h12.239v-3.062h-3.061v-3.055h3.061v-3.068h-12.239v3.068h3.062v3.055h-3.062Zm62.72-4.594v-6.115h3.062v6.115Zm-6.115,0v-6.115h3.054v6.115Zm-6.123,0v-6.115h3.061v6.115Zm-6.117,0v-6.115h3.062v6.115Z" transform="translate(-15446.379 -18893.031)"/></g></svg>