<svg xmlns="http://www.w3.org/2000/svg" viewBox="0 0 39.08 41.805"><defs><style>.a{fill:#0129ad;}</style></defs><g transform="translate(-561.23 -618.473)"><g transform="translate(561.23 618.473)"><path class="a" d="M52.854,7.688,38.573.547l0,0a5.289,5.289,0,0,0-4.684,0L19.608,7.686a5.23,5.23,0,0,0-2.919,4.708V29.382a5.23,5.23,0,0,0,2.9,4.729l14.28,7.14a5.284,5.284,0,0,0,4.706,0L52.85,34.113a5.229,5.229,0,0,0,2.919-4.708V12.393A5.227,5.227,0,0,0,52.854,7.688ZM52.391,29.4a1.872,1.872,0,0,1-1.048,1.685L37.062,38.231a1.89,1.89,0,0,1-1.684,0L21.1,31.093A1.87,1.87,0,0,1,20.067,29.4v-17a1.872,1.872,0,0,1,1.048-1.686L35.392,3.57a1.891,1.891,0,0,1,1.673,0l14.282,7.141a1.87,1.87,0,0,1,1.044,1.683V29.4Z" transform="translate(-16.689 0.001)"/></g><g transform="translate(561.802 627.25)"><path class="a" d="M61.442,108.427a1.689,1.689,0,0,0-2.266-.755l-16.524,8.262-16.524-8.262a1.689,1.689,0,0,0-1.511,3.021l17.28,8.64a1.689,1.689,0,0,0,1.511,0l17.28-8.64A1.689,1.689,0,0,0,61.442,108.427Z" transform="translate(-23.682 -107.493)"/></g><g transform="translate(579.082 635.89)"><path class="a" d="M237,213.312A1.689,1.689,0,0,0,235.316,215v20.993a1.689,1.689,0,0,0,3.378,0V215A1.689,1.689,0,0,0,237,213.312Z" transform="translate(-235.316 -213.312)"/></g></g></svg>