<svg xmlns="http://www.w3.org/2000/svg" viewBox="0 0 41.805 41.805"><defs><style>.a{fill:#0129ad;}</style></defs><g transform="translate(-293.086 -547.027)"><g transform="translate(293.086 547.027)"><path class="a" d="M35.683,6.122A20.9,20.9,0,1,0,6.122,35.683,20.9,20.9,0,1,0,35.683,6.122ZM20.9,38.428A17.525,17.525,0,1,1,38.428,20.9,17.545,17.545,0,0,1,20.9,38.428Z"/></g><g transform="translate(306.536 560.477)"><path class="a" d="M172.175,164.722a7.453,7.453,0,1,0,7.453,7.453A7.461,7.461,0,0,0,172.175,164.722Zm0,11.528a4.075,4.075,0,1,1,4.075-4.075A4.08,4.08,0,0,1,172.175,176.25Z" transform="translate(-164.722 -164.722)"/></g></g></svg>