<svg xmlns="http://www.w3.org/2000/svg" viewBox="0 0 41.197 41.805"><defs><style>.a{fill:#0129ad;}</style></defs><g transform="translate(-360.857 -171.512)"><g transform="translate(360.857 171.512)"><path class="a" d="M33.632.006H11.967a5.532,5.532,0,0,0-5.52,4.7L3.8,22a5.532,5.532,0,0,0,5.521,6.361h9.178v6a7.461,7.461,0,0,0,7.453,7.453,1.689,1.689,0,0,0,1.543-1l7.686-17.292a1.689,1.689,0,0,0,.146-.686V1.7A1.689,1.689,0,0,0,33.632.006ZM31.943,22.472,24.909,38.3a4.083,4.083,0,0,1-3.037-3.941V26.673a1.689,1.689,0,0,0-1.689-1.689H9.288a2.064,2.064,0,0,1-.348-.024,2.154,2.154,0,0,1-1.807-2.45l2.652-17.3a2.164,2.164,0,0,1,2.13-1.831H31.943V22.472Z" transform="translate(-3.731 -0.006)"/></g><g transform="translate(389.069 171.512)"><path class="a" d="M362.217,5.306A6.129,6.129,0,0,0,356.053,0h-5.116a1.689,1.689,0,1,0,0,3.377h5.16a2.75,2.75,0,0,1,2.758,2.281v13.2a2.75,2.75,0,0,1-2.758,2.281h-5.16a1.689,1.689,0,1,0,0,3.377h5.21a6.128,6.128,0,0,0,6.07-5.306,1.681,1.681,0,0,0,.015-.226V5.533A1.681,1.681,0,0,0,362.217,5.306Z" transform="translate(-349.248 0)"/></g></g></svg>