<svg xmlns="http://www.w3.org/2000/svg" viewBox="0 0 41.807 41.807"><defs><style>.a{fill:#0129ad;}</style></defs><g transform="translate(-628.676 -467.418)"><g transform="translate(628.676 471.261)"><path class="a" d="M36.274,67.547a1.689,1.689,0,0,0-1.689,1.689V79.5a2.156,2.156,0,0,1-2.154,2.154H5.532A2.156,2.156,0,0,1,3.378,79.5V52.6a2.156,2.156,0,0,1,2.154-2.154h10.26a1.689,1.689,0,1,0,0-3.377H5.532A5.538,5.538,0,0,0,0,52.6V79.5a5.538,5.538,0,0,0,5.532,5.531h26.9A5.538,5.538,0,0,0,37.963,79.5V69.236A1.689,1.689,0,0,0,36.274,67.547Z" transform="translate(0 -47.065)"/></g><g transform="translate(640.204 467.418)"><path class="a" d="M170.973,8.18,163.288.495a1.689,1.689,0,0,0-2.388,0L141.686,19.709a1.689,1.689,0,0,0-.495,1.194v7.686a1.689,1.689,0,0,0,1.689,1.689h7.686a1.689,1.689,0,0,0,1.194-.495l19.214-19.214a1.689,1.689,0,0,0,0-2.388ZM149.866,26.9h-5.3V21.6L162.094,4.077l5.3,5.3Z" transform="translate(-141.191 0)"/></g></g></svg>