<svg xmlns="http://www.w3.org/2000/svg" viewBox="0 0 41.807 34.121"><defs><style>.a{fill:#0129ad;}</style></defs><g transform="translate(-628.676 -315.871)"><g transform="translate(628.676 315.871)"><path class="a" d="M36.276,47.065H5.533A5.538,5.538,0,0,0,0,52.6V75.653a5.538,5.538,0,0,0,5.531,5.531H36.276a5.538,5.538,0,0,0,5.531-5.531V52.6A5.538,5.538,0,0,0,36.276,47.065ZM38.43,75.653a2.157,2.157,0,0,1-2.154,2.154H5.533a2.157,2.157,0,0,1-2.154-2.154V52.6a2.157,2.157,0,0,1,2.154-2.154H36.276A2.157,2.157,0,0,1,38.43,52.6V75.653Z" transform="translate(-0.002 -47.065)"/></g><g transform="translate(628.676 319.714)"><path class="a" d="M41.5,94.846a1.689,1.689,0,0,0-2.352-.415L20.9,107.2,2.658,94.431A1.689,1.689,0,0,0,.721,97.2l19.214,13.45a1.689,1.689,0,0,0,1.937,0L41.086,97.2A1.689,1.689,0,0,0,41.5,94.846Z" transform="translate(-0.001 -94.125)"/></g></g></svg>