<svg xmlns="http://www.w3.org/2000/svg" viewBox="0 0 41.805 41.805"><defs><style>.a{fill:#0129ad;}</style></defs><g transform="translate(-559.842 -467.418)"><g transform="translate(559.842 473.823)"><path class="a" d="M33.712,93.383a1.689,1.689,0,0,0-1.689,1.689v12.809a2.584,2.584,0,0,1-2.581,2.581H5.959a2.584,2.584,0,0,1-2.581-2.581V84.4a2.584,2.584,0,0,1,2.581-2.581H18.768a1.689,1.689,0,0,0,0-3.377H5.959A5.965,5.965,0,0,0,0,84.4v23.484a5.965,5.965,0,0,0,5.959,5.959H29.442a5.965,5.965,0,0,0,5.959-5.959V95.072A1.689,1.689,0,0,0,33.712,93.383Z" transform="translate(0 -78.439)"/></g><g transform="translate(585.461 467.418)"><path class="a" d="M328.255,0H315.446a1.689,1.689,0,1,0,0,3.377h11.121V14.5a1.689,1.689,0,1,0,3.377,0V1.689A1.689,1.689,0,0,0,328.255,0Z" transform="translate(-313.757)"/></g><g transform="translate(574.786 467.418)"><path class="a" d="M209.391.5A1.689,1.689,0,0,0,207,.5L183.519,23.979a1.689,1.689,0,0,0,2.388,2.388L209.391,2.884A1.689,1.689,0,0,0,209.391.5Z" transform="translate(-183.024 -0.001)"/></g></g></svg>