<svg xmlns="http://www.w3.org/2000/svg" viewBox="0 0 41.785 41.805"><defs><style>.a{fill:#0129ad;}</style></defs><g transform="translate(-293.086 -467.418)"><g transform="translate(298.848 467.418)"><path class="a" d="M102.836,3.872a13.219,13.219,0,0,0-18.694,0L71.178,16.836a1.689,1.689,0,0,0-.495,1.194V34.355a1.689,1.689,0,0,0,1.689,1.689H88.7a1.689,1.689,0,0,0,1.2-.5l12.943-12.982a13.219,13.219,0,0,0,0-18.694Zm-2.388,16.306,0,0L88,32.666H74.061V18.729L86.53,6.26a9.841,9.841,0,1,1,13.918,13.918Z" transform="translate(-70.683)"/></g><g transform="translate(293.086 478.958)"><path class="a" d="M29.889,141.823a1.689,1.689,0,0,0-2.388,0L.612,168.711A1.689,1.689,0,0,0,3,171.1l26.888-26.888A1.689,1.689,0,0,0,29.889,141.823Z" transform="translate(-0.117 -141.328)"/></g><g transform="translate(306.53 492.402)"><path class="a" d="M181.825,305.982H166.46a1.689,1.689,0,1,0,0,3.377h15.365a1.689,1.689,0,0,0,0-3.377Z" transform="translate(-164.771 -305.982)"/></g></g></svg>