<svg xmlns="http://www.w3.org/2000/svg" viewBox="0 0 34.121 41.805"><defs><style>.a{fill:#0129ad;}</style></defs><g transform="translate(-228.502 -467.418)"><g transform="translate(228.502 467.418)"><path class="a" d="M80.689,13.944,67.239.495A1.688,1.688,0,0,0,66.045,0H52.6a5.538,5.538,0,0,0-5.531,5.532V36.274A5.538,5.538,0,0,0,52.6,41.806H75.652a5.538,5.538,0,0,0,5.532-5.532V15.138A1.689,1.689,0,0,0,80.689,13.944Zm-2.883,22.33a2.156,2.156,0,0,1-2.154,2.154H52.6a2.156,2.156,0,0,1-2.154-2.154V5.532A2.156,2.156,0,0,1,52.6,3.378h12.75L77.806,15.838V36.274Z" transform="translate(-47.064 0)"/></g><g transform="translate(245.795 467.418)"><path class="a" d="M273.988,13.45H262.227V1.689a1.689,1.689,0,0,0-3.377,0v13.45a1.689,1.689,0,0,0,1.689,1.689h13.45a1.689,1.689,0,0,0,0-3.377Z" transform="translate(-258.85)"/></g></g></svg>