<?xml version="1.0" encoding="UTF-8" standalone="no"?>
<!-- Generator: Adobe Illustrator 19.0.0, SVG Export Plug-In . SVG Version: 6.00 Build 0)  -->

<svg
   xmlns:dc="http://purl.org/dc/elements/1.1/"
   xmlns:cc="http://creativecommons.org/ns#"
   xmlns:rdf="http://www.w3.org/1999/02/22-rdf-syntax-ns#"
   xmlns:svg="http://www.w3.org/2000/svg"
   xmlns="http://www.w3.org/2000/svg"
   xmlns:sodipodi="http://sodipodi.sourceforge.net/DTD/sodipodi-0.dtd"
   xmlns:inkscape="http://www.inkscape.org/namespaces/inkscape"
   version="1.1"
   id="Capa_1"
   x="0px"
   y="0px"
   viewBox="0 0 421.13272 512"
   xml:space="preserve"
   inkscape:version="0.91 r13725"
   sodipodi:docname="filter.svg"
   width="421.13272"
   height="512"><metadata
     id="metadata67"><rdf:RDF><cc:Work
         rdf:about=""><dc:format>image/svg+xml</dc:format><dc:type
           rdf:resource="http://purl.org/dc/dcmitype/StillImage" /><dc:title></dc:title></cc:Work></rdf:RDF></metadata><defs
     id="defs65" /><sodipodi:namedview
     pagecolor="#ffffff"
     bordercolor="#666666"
     borderopacity="1"
     objecttolerance="10"
     gridtolerance="10"
     guidetolerance="10"
     inkscape:pageopacity="0"
     inkscape:pageshadow="2"
     inkscape:window-width="2560"
     inkscape:window-height="1017"
     id="namedview63"
     showgrid="false"
     fit-margin-top="0"
     fit-margin-left="0"
     fit-margin-right="0"
     fit-margin-bottom="0"
     inkscape:zoom="0.4609375"
     inkscape:cx="210.56637"
     inkscape:cy="256"
     inkscape:window-x="-8"
     inkscape:window-y="-8"
     inkscape:window-maximized="1"
     inkscape:current-layer="Capa_1" /><g
     id="g3"
     transform="translate(-45.433635,0)"><g
       id="g5"><path
         d="m 149.14,205.29 c -1.86,-1.86 -4.44,-2.931 -7.07,-2.931 -2.63,0 -5.21,1.071 -7.07,2.931 -1.87,1.859 -2.93,4.439 -2.93,7.069 0,2.631 1.06,5.21 2.93,7.07 1.86,1.86 4.44,2.93 7.07,2.93 2.63,0 5.21,-1.069 7.07,-2.93 1.86,-1.86 2.93,-4.439 2.93,-7.07 0,-2.63 -1.07,-5.21 -2.93,-7.069 z"
         id="path7"
         inkscape:connector-curvature="0" /></g></g><g
     id="g9"
     transform="translate(-45.433635,0)"><g
       id="g11"><path
         d="M 230.95,301.427 170.351,230.18 c -3.578,-4.208 -9.889,-4.717 -14.096,-1.138 -4.207,3.578 -4.716,9.889 -1.138,14.096 l 60.599,71.247 c 1.978,2.326 4.791,3.521 7.622,3.521 2.291,0 4.593,-0.782 6.474,-2.383 4.207,-3.578 4.716,-9.889 1.138,-14.096 z"
         id="path13"
         inkscape:connector-curvature="0" /></g></g><g
     id="g15"
     transform="translate(-45.433635,0)"><g
       id="g17"><path
         d="m 171.987,0 -88,0 c -5.523,0 -10,4.478 -10,10 l 0,50.901 c 0,5.523 4.477,10 10,10 l 88,0 c 5.523,0 10,-4.478 10,-10 l 0,-50.901 c 0,-5.522 -4.477,-10 -10,-10 z m -10,50.901 -68,0 0,-30.901 68,0 0,30.901 z"
         id="path19"
         inkscape:connector-curvature="0" /></g></g><g
     id="g21"
     transform="translate(-45.433635,0)"><g
       id="g23"><path
         d="M 465.644,164.805 C 464.008,161.266 460.465,159 456.566,159 l -58.566,0 0,-62.065 0,-72.066 c 0,-5.522 -4.477,-10 -10,-10 l -88,0 c -5.523,0 -10,4.478 -10,10 l 0,26.032 -78,0 c -5.523,0 -10,4.478 -10,10 l 0,62.065 -78,0 c -5.523,0 -10,4.478 -10,10 l 0,26.034 -58.566,0 c -3.899,0 -7.442,2.266 -9.078,5.805 -1.635,3.539 -1.065,7.707 1.461,10.676 l 156.426,183.833 0,142.686 c 0,4.036 2.427,7.677 6.152,9.23 1.243,0.518 2.55,0.77 3.846,0.77 2.587,0 5.131,-1.004 7.041,-2.897 l 83.514,-82.76 c 1.895,-1.878 2.961,-4.436 2.961,-7.104 l 0,-59.926 49.179,-57.795 c 3.579,-4.206 3.071,-10.518 -1.135,-14.097 -4.206,-3.578 -10.518,-3.069 -14.096,1.136 l -51.563,60.597 c -1.539,1.809 -2.384,4.105 -2.384,6.48 l 0,59.436 -63.514,62.941 0,-122.376 c 0,-2.375 -0.845,-4.672 -2.384,-6.48 L 77.073,179 l 357.854,0 -41.78,49.101 c -3.579,4.206 -3.07,10.518 1.136,14.097 4.207,3.578 10.517,3.07 14.097,-1.136 l 55.803,-65.581 c 2.526,-2.97 3.096,-7.137 1.461,-10.676 z M 202,159 l -68,0 0,-16.033 68,0 0,16.033 z m 88,0 -68,0 0,-16.033 68,0 0,16.033 z m 0,-62.066 0,26.032 -68,0 0,-52.065 68,0 0,26.033 z m 88,62.066 -68,0 0,-26.033 0,-26.032 68,0 0,52.065 z m 0,-72.066 -68,0 0,-26.033 0,-26.032 68,0 0,52.065 z"
         id="path25"
         inkscape:connector-curvature="0" /></g></g><g
     id="g27"
     transform="translate(-45.433635,0)"><g
       id="g29"><path
         d="m 380.78,259.3 c -1.86,-1.86 -4.44,-2.93 -7.07,-2.93 -2.63,0 -5.21,1.069 -7.07,2.93 -1.86,1.86 -2.93,4.44 -2.93,7.07 0,2.63 1.07,5.21 2.93,7.069 1.86,1.87 4.44,2.931 7.07,2.931 2.63,0 5.21,-1.061 7.07,-2.931 1.86,-1.859 2.93,-4.439 2.93,-7.069 0,-2.63 -1.07,-5.21 -2.93,-7.07 z"
         id="path31"
         inkscape:connector-curvature="0" /></g></g><g
     id="g33"
     transform="translate(-45.433635,0)" /><g
     id="g35"
     transform="translate(-45.433635,0)" /><g
     id="g37"
     transform="translate(-45.433635,0)" /><g
     id="g39"
     transform="translate(-45.433635,0)" /><g
     id="g41"
     transform="translate(-45.433635,0)" /><g
     id="g43"
     transform="translate(-45.433635,0)" /><g
     id="g45"
     transform="translate(-45.433635,0)" /><g
     id="g47"
     transform="translate(-45.433635,0)" /><g
     id="g49"
     transform="translate(-45.433635,0)" /><g
     id="g51"
     transform="translate(-45.433635,0)" /><g
     id="g53"
     transform="translate(-45.433635,0)" /><g
     id="g55"
     transform="translate(-45.433635,0)" /><g
     id="g57"
     transform="translate(-45.433635,0)" /><g
     id="g59"
     transform="translate(-45.433635,0)" /><g
     id="g61"
     transform="translate(-45.433635,0)" /></svg>