<svg xmlns="http://www.w3.org/2000/svg" viewBox="0 0 34.121 41.807"><defs><style>.a{fill:#0129ad;}</style></defs><g transform="translate(-163.262 -467.418)"><g transform="translate(163.262 467.418)"><path class="a" d="M80.14,2.05a1.689,1.689,0,0,0-1.84.366c-.014.014-1.724,1.427-6.491,1.427a18.661,18.661,0,0,1-7.059-1.8A21.583,21.583,0,0,0,56.437,0c-6.282,0-8.632,2.169-8.88,2.416a1.689,1.689,0,0,0-.495,1.194V26.667a1.708,1.708,0,0,0,1.055,1.617,1.62,1.62,0,0,0,1.81-.4c.2-.159,1.969-1.447,6.509-1.447a18.661,18.661,0,0,1,7.058,1.8,21.581,21.581,0,0,0,8.313,2.042c6.282,0,8.632-2.169,8.88-2.416a1.688,1.688,0,0,0,.495-1.194V3.61A1.689,1.689,0,0,0,80.14,2.05ZM77.805,25.772a12.949,12.949,0,0,1-6,1.127,18.662,18.662,0,0,1-7.059-1.8,21.582,21.582,0,0,0-8.313-2.042,18.826,18.826,0,0,0-6,.854V4.5a12.948,12.948,0,0,1,6-1.127,18.66,18.66,0,0,1,7.058,1.8A21.584,21.584,0,0,0,71.809,7.22a18.823,18.823,0,0,0,6-.854Z" transform="translate(-47.063)"/></g><g transform="translate(163.262 492.396)"><path class="a" d="M48.753,305.913a1.689,1.689,0,0,0-1.689,1.689v13.45a1.689,1.689,0,0,0,3.377,0V307.6A1.689,1.689,0,0,0,48.753,305.913Z" transform="translate(-47.064 -305.913)"/></g></g></svg>