<svg xmlns="http://www.w3.org/2000/svg" viewBox="0 0 85.662 71.836"><defs><style>.a{fill:#0a61ff;}</style></defs><g transform="translate(-444.274 -406.432)"><path class="a" d="M188.018,103.548a7.126,7.126,0,0,0,7.118-7.118V91.418a7.118,7.118,0,1,0-14.235,0V96.43A7.114,7.114,0,0,0,188.018,103.548Zm0-2.5a4.613,4.613,0,0,1-4.585-4.192,7.106,7.106,0,0,0,9.169,0A4.627,4.627,0,0,1,188.018,101.05Zm0-14.217a4.6,4.6,0,1,1-4.6,4.6A4.614,4.614,0,0,1,188.018,86.833Z" transform="translate(295.644 337.169)"/><path class="a" d="M215.047,113.751A1.241,1.241,0,0,0,216.3,112.5v-3.354a1.249,1.249,0,1,0-2.5,0v3.336A1.245,1.245,0,0,0,215.047,113.751Z" transform="translate(268.615 317.779)"/><path class="a" d="M295.392,27.6a11.3,11.3,0,0,0,11.292-11.274v-5.03a11.292,11.292,0,1,0-22.584,0V16.3h0A11.305,11.305,0,0,0,295.392,27.6Zm0-25.081a8.777,8.777,0,1,1-8.777,8.777A8.793,8.793,0,0,1,295.392,2.515Zm0,20.068a11.271,11.271,0,0,0,8.42-3.782,8.785,8.785,0,0,1-16.84,0A11.242,11.242,0,0,0,295.392,22.584Z" transform="translate(210.854 406.432)"/><path class="a" d="M341.647,46.787h0a1.241,1.241,0,0,0,1.249-1.249V38.849a1.249,1.249,0,0,0-2.5,0v6.689A1.241,1.241,0,0,0,341.647,46.787Z" transform="translate(164.599 375.539)"/><path class="a" d="M84.911,212.806a6.431,6.431,0,0,0-8.723-2.373c-.3.143-7.367,3.621-13.147,6.065a1.431,1.431,0,0,0,1.106,2.64c5.976-2.515,13.254-6.1,13.325-6.154.036-.018.054-.036.071-.036a3.574,3.574,0,0,1,4.87,1.3c1.142,1.962-.7,4.174-1.552,5.048-6.136,4.959-23.3,17.785-29.023,17.785-6.226,0-23.244-3.568-28.542-4.727v-20.1c8.562-1.231,13.022.321,22.726,3.71,2.926,1.017,6.261,2.176,10.311,3.479a2.475,2.475,0,0,1,1.534,3.122,2.835,2.835,0,0,1-3.264,2.069c-2.5-.464-17.41-2.5-17.553-2.515A1.4,1.4,0,0,0,36,222.4a1.444,1.444,0,0,0-.553.945,1.4,1.4,0,0,0,.285,1.052,1.444,1.444,0,0,0,.945.553c.143.018,15.038,2.034,17.41,2.48a5.948,5.948,0,0,0,1.106.107,5.7,5.7,0,0,0,5.405-4.156A5.279,5.279,0,0,0,57.4,216.8h-.018a.062.062,0,0,1-.036-.018l-.036-.018a.062.062,0,0,1-.036-.018c-4.049-1.284-7.367-2.444-10.311-3.478-9.437-3.282-14.663-5.12-23.672-3.889v-.856A1.431,1.431,0,0,0,21.87,207.1H18.3v-1.07a1.431,1.431,0,0,0-1.427-1.427H4.246A4.244,4.244,0,0,0,0,208.846V233.5a1.427,1.427,0,1,0,2.854,0V207.454H15.448v29.63H13.308v-1.07a1.427,1.427,0,0,0-2.854,0v1.07H1.445a1.427,1.427,0,1,0,0,2.854H16.893a1.431,1.431,0,0,0,1.427-1.427v-1.142h3.568a1.431,1.431,0,0,0,1.427-1.427v-.66c5.352,1.16,22.12,4.656,28.542,4.656,3.461,0,9.544-3.05,18.606-9.33,6.493-4.5,12.2-9.1,12.255-9.133l.107-.107C85.643,218.585,86.41,215.392,84.911,212.806ZM20.835,234.872H17.981V209.595h2.854Z" transform="translate(444.274 238.329)"/></g></svg>