<svg xmlns="http://www.w3.org/2000/svg" viewBox="0 0 104.598 83.674"><defs><style>.a{fill:#0a61ff;}</style></defs><g transform="translate(-434.652 -231.113)"><path class="a" d="M102.876,0H69.746A1.749,1.749,0,0,0,68,1.744V6.975H62.772a1.749,1.749,0,0,0-1.744,1.744V28.552l-12.62,6.3H6.822A6.846,6.846,0,0,0,0,41.673V76.852a6.846,6.846,0,0,0,6.822,6.822H31.887A6.827,6.827,0,0,0,38.339,77.4,2.369,2.369,0,0,0,38.36,77l18.875,3.139a1.242,1.242,0,0,0,.283.022H83.674a6.94,6.94,0,0,0,6.016-3.487h6.19a1.749,1.749,0,0,0,1.744-1.744V69.7h5.231a1.749,1.749,0,0,0,1.744-1.744V1.744A1.716,1.716,0,0,0,102.876,0ZM64.515,10.462H94.157V34.873H90.67V19.18a1.749,1.749,0,0,0-1.744-1.744,1.749,1.749,0,0,1-1.744-1.744,1.749,1.749,0,0,0-1.744-1.744H73.233a1.749,1.749,0,0,0-1.744,1.744,1.749,1.749,0,0,1-1.744,1.744A1.749,1.749,0,0,0,68,19.18V34.873H64.515ZM87.183,20.619V34.873H71.49V20.619a5.232,5.232,0,0,0,3.182-3.182h9.307A5.321,5.321,0,0,0,87.183,20.619Zm-55.4,59.589H6.844a3.349,3.349,0,0,1-3.335-3.335V41.7A3.349,3.349,0,0,1,6.844,38.36H34.895V77.244A3.392,3.392,0,0,1,31.778,80.208ZM94.157,62.772V73.233H90.67a7.055,7.055,0,0,0-1.177-3.88,6.965,6.965,0,0,0,4.664-6.582,7.146,7.146,0,0,0-.392-2.31,7.046,7.046,0,0,0-.785-1.569,5.854,5.854,0,0,0,1.177-.567v4.446Zm0-17.437H87.183a1.744,1.744,0,0,0,0,3.487H90.67a3.487,3.487,0,0,1,0,6.975H83.7a1.744,1.744,0,0,0,0,3.487h3.487a3.487,3.487,0,1,1,0,6.975H80.208a1.744,1.744,0,0,0,0,3.487H83.7a3.487,3.487,0,0,1,0,6.975h-26L38.382,73.5v-6.43a4.555,4.555,0,0,0-.022-.545V38.36H48.822a1.959,1.959,0,0,0,.785-.174l11.421-5.71v4.141a1.749,1.749,0,0,0,1.744,1.744H94.157a3.487,3.487,0,0,1,0,6.975Zm6.975,20.924H97.645v-18.4a6.9,6.9,0,0,0,3.487-5.8Zm0-24.607a6.76,6.76,0,0,0-.915-3.226,6.934,6.934,0,0,0-2.572-2.572V8.718A1.749,1.749,0,0,0,95.9,6.975H71.49V3.487h29.642Z" transform="translate(434.652 231.113)"/><path class="a" d="M90.427,288.959h0a2.764,2.764,0,0,0-.5-.262,6.956,6.956,0,0,0-6.561.262h-.022a6.975,6.975,0,0,0,3.531,12.99,5.306,5.306,0,0,0,.588-.022,6.965,6.965,0,0,0,6.386-6.953A6.859,6.859,0,0,0,90.427,288.959Zm-2.942,9.459a5.345,5.345,0,0,1-.588.044,3.487,3.487,0,0,1,0-6.975,1.951,1.951,0,0,1,.5.044,3.487,3.487,0,0,1,.087,6.887Z" transform="translate(372.167 5.885)"/></g></svg>