<svg xmlns="http://www.w3.org/2000/svg" viewBox="0 0 37.963 41.807"><defs><style>.a{fill:#0129ad;}</style></defs><g transform="translate(-426.096 -387.807)"><g transform="translate(426.096 387.807)"><path class="a" d="M60.842,13.806,43.549.356a1.689,1.689,0,0,0-2.074,0L24.183,13.806a1.689,1.689,0,0,0-.652,1.333V36.275a5.538,5.538,0,0,0,5.532,5.532h26.9a5.538,5.538,0,0,0,5.532-5.532V15.139A1.689,1.689,0,0,0,60.842,13.806ZM58.116,36.275a2.156,2.156,0,0,1-2.154,2.154h-26.9a2.156,2.156,0,0,1-2.154-2.154V15.965l15.6-12.136,15.6,12.136Z" transform="translate(-23.531 -0.001)"/></g><g transform="translate(437.624 407.021)"><path class="a" d="M177.939,235.317H166.411a1.689,1.689,0,0,0-1.689,1.689V256.22a1.689,1.689,0,0,0,3.377,0V238.695h8.151V256.22a1.689,1.689,0,0,0,3.378,0V237.006A1.689,1.689,0,0,0,177.939,235.317Z" transform="translate(-164.722 -235.317)"/></g></g></svg>