<svg xmlns="http://www.w3.org/2000/svg" viewBox="0 0 41.805 41.805"><defs><style>.a{fill:#0129ad;}</style></defs><g transform="translate(-293.086 -387.807)"><g transform="translate(293.086 387.807)"><path class="a" d="M35.683,6.122A20.9,20.9,0,1,0,6.122,35.683,20.9,20.9,0,1,0,35.683,6.122ZM20.9,38.428A17.525,17.525,0,1,1,38.428,20.9,17.545,17.545,0,0,1,20.9,38.428Z"/></g><g transform="translate(312.3 407.021)"><path class="a" d="M237.007,235.318a1.689,1.689,0,0,0-1.689,1.689v7.686a1.689,1.689,0,1,0,3.377,0v-7.686A1.689,1.689,0,0,0,237.007,235.318Z" transform="translate(-235.318 -235.318)"/></g><g transform="translate(312.3 399.335)"><path class="a" d="M238.2,141.685a1.689,1.689,0,1,0,.495,1.194A1.7,1.7,0,0,0,238.2,141.685Z" transform="translate(-235.317 -141.19)"/></g></g></svg>