<svg xmlns="http://www.w3.org/2000/svg" viewBox="0 0 41.805 41.803"><defs><style>.a{fill:#0129ad;}</style></defs><g transform="translate(-159.424 -387.807)"><g transform="translate(159.424 387.806)"><path class="a" d="M40.875,9.791,21.662.184a1.689,1.689,0,0,0-1.51,0L.938,9.791a1.689,1.689,0,0,0,0,3.021l19.214,9.607a1.689,1.689,0,0,0,1.51,0l19.214-9.607a1.689,1.689,0,0,0,0-3.021Z" transform="translate(-0.004 -0.006)"/></g><g transform="translate(159.424 416.626)"><path class="a" d="M41.627,353.9a1.689,1.689,0,0,0-2.266-.755L20.9,362.379,2.444,353.15a1.689,1.689,0,0,0-1.51,3.021l19.214,9.607a1.689,1.689,0,0,0,1.511,0l19.214-9.607A1.689,1.689,0,0,0,41.627,353.9Z" transform="translate(0 -352.971)"/></g><g transform="translate(159.424 407.019)"><path class="a" d="M41.627,236.248a1.689,1.689,0,0,0-2.266-.755L20.9,244.722,2.444,235.493a1.689,1.689,0,0,0-1.51,3.021l19.214,9.607a1.689,1.689,0,0,0,1.511,0l19.214-9.607A1.689,1.689,0,0,0,41.627,236.248Z" transform="translate(0 -235.314)"/></g></g></svg>