<svg xmlns="http://www.w3.org/2000/svg" viewBox="0 0 27.832 41.807"><defs><style>.a{fill:#0129ad;}</style></defs><g transform="translate(-166.363 -696.531)"><g transform="translate(166.363 696.531)"><path class="a" d="M99.486,0A13.916,13.916,0,1,0,113.4,13.916,13.932,13.932,0,0,0,99.486,0Zm0,24.454a10.538,10.538,0,1,1,10.538-10.538A10.55,10.55,0,0,1,99.486,24.454Z" transform="translate(-85.57)"/></g><g transform="translate(169.857 719.029)"><path class="a" d="M149.183,292.93,147.069,277a1.689,1.689,0,0,0-3.348.444l1.653,12.458-5.73-3.438a1.689,1.689,0,0,0-1.738,0l-5.729,3.438,1.652-12.44a1.689,1.689,0,0,0-3.348-.445l-2.114,15.913a1.689,1.689,0,0,0,2.543,1.671l7.865-4.719,7.865,4.719a1.689,1.689,0,0,0,2.543-1.67Z" transform="translate(-128.353 -275.533)"/></g></g></svg>