<svg xmlns="http://www.w3.org/2000/svg" viewBox="0 0 84.375 56.191"><defs><style>.a{fill:#0a61ff;}</style></defs><g transform="translate(-631.481 -727.328)"><path class="a" d="M16264.138,19378.191a4.145,4.145,0,0,1-4.141-4.141v-47.914a4.144,4.144,0,0,1,4.141-4.137h76.1a4.143,4.143,0,0,1,4.135,4.137v47.914a4.144,4.144,0,0,1-4.135,4.141Zm68.963-2.643h7.137a1.5,1.5,0,0,0,1.492-1.5v-47.914a1.5,1.5,0,0,0-1.492-1.494h-7.137Zm-26.145-42.508,3.24,3.053h7.49a4.139,4.139,0,0,1,4.141,4.133v6.809l5.219,4.916a1.309,1.309,0,0,1,.42.961v22.637h2.99v-50.906h-56.543v50.906h3v-22.637a1.333,1.333,0,0,1,.414-.961l5.225-4.916v-6.809a4.137,4.137,0,0,1,4.135-4.133h7.5l3.24-3.053a6.954,6.954,0,0,1,9.537,0Zm2.4,37.484,5.336,5.023h10.133v-19.58Zm-10.127-.336-5.687,5.359h17.295l-5.687-5.359a4.329,4.329,0,0,0-5.92,0Zm-19.676,5.359h10.133l5.336-5.023-15.469-14.557Zm-16.912-49.412v47.914a1.5,1.5,0,0,0,1.5,1.5h7.133v-50.906h-7.133A1.5,1.5,0,0,0,16262.64,19326.137Zm44.316,42.135.469.445,4.908-4.619h-4.506a1.321,1.321,0,1,1,0-2.643h7.314l4.043-3.811v-17.418a1.5,1.5,0,0,0-1.5-1.5h-31a1.5,1.5,0,0,0-1.5,1.5v17.418l4.045,3.811h12.951a1.321,1.321,0,1,1,0,2.643h-10.145l4.9,4.619.475-.445a6.969,6.969,0,0,1,9.537,0Zm14.871-13.113,2.387-2.246-2.387-2.246Zm-41.666-2.246,2.387,2.246v-4.492Zm19.066-17.947-1.193,1.129h8.307l-1.193-1.129a4.319,4.319,0,0,0-5.92,0Zm-33.59,24.992v-1.41a1.321,1.321,0,1,1,2.643,0v1.41a1.321,1.321,0,1,1-2.643,0Zm46.416-1.5a1.321,1.321,0,1,1,0-2.643h2.814a1.321,1.321,0,0,1,0,2.643Zm-14.092,0a1.321,1.321,0,1,1,0-2.643h8.451a1.321,1.321,0,1,1,0,2.643Zm-8.459,0a1.321,1.321,0,1,1,0-2.643h2.818a1.321,1.321,0,1,1,0,2.643Zm46.594-4.141v-8.453a1.321,1.321,0,1,1,2.643,0v8.453a1.321,1.321,0,0,1-2.643,0Zm-70.459-1.408v-5.639a1.321,1.321,0,0,1,2.643,0v5.639a1.321,1.321,0,1,1-2.643,0Zm42.189-.086a1.321,1.321,0,1,1,0-2.643h7.041a1.321,1.321,0,0,1,0,2.643Zm-18.324,0a1.321,1.321,0,1,1,0-2.643h12.684a1.321,1.321,0,1,1,0,2.643Zm12.684-5.637a1.322,1.322,0,0,1,0-2.645h12.682a1.322,1.322,0,0,1,0,2.645Zm-12.684,0a1.322,1.322,0,0,1,0-2.645h7.045a1.322,1.322,0,0,1,0,2.645Zm-23.865-5.549v-1.414a1.321,1.321,0,1,1,2.643,0v1.414a1.321,1.321,0,1,1-2.643,0Zm70.465-12.686a1.314,1.314,0,0,1,1.314-1.322h.014a1.322,1.322,0,1,1-1.328,1.322Z" transform="translate(-15628.516 -18594.672)"/></g></svg>