<svg xmlns="http://www.w3.org/2000/svg" viewBox="0 0 41.805 41.805"><defs><style>.a{fill:#0129ad;}</style></defs><g transform="translate(-224.664 -315.869)"><g transform="translate(224.664 315.869)"><path class="a" d="M35.847,0H5.959A5.965,5.965,0,0,0,0,5.959V35.847a5.965,5.965,0,0,0,5.959,5.959H35.847a5.965,5.965,0,0,0,5.959-5.958V5.959A5.965,5.965,0,0,0,35.847,0Zm2.581,35.847a2.584,2.584,0,0,1-2.581,2.581H5.959a2.584,2.584,0,0,1-2.581-2.581V5.959A2.584,2.584,0,0,1,5.959,3.377H35.847a2.584,2.584,0,0,1,2.581,2.581Z"/></g><g transform="translate(235.339 335.083)"><path class="a" d="M149.5,235.318H132.421a1.689,1.689,0,1,0,0,3.377H149.5a1.689,1.689,0,1,0,0-3.377Z" transform="translate(-130.732 -235.318)"/></g></g></svg>