<svg xmlns="http://www.w3.org/2000/svg" viewBox="0 0 41.807 34.82"><defs><style>.a{fill:#0129ad;}</style></defs><g transform="translate(-360.531 -243.201)"><g transform="translate(360.531 244.953)"><path class="a" d="M12.169,74.714H3.377V65.923a1.689,1.689,0,0,0-3.377,0V76.4a1.689,1.689,0,0,0,1.689,1.689h10.48a1.689,1.689,0,1,0,0-3.377Z" transform="translate(0 -64.234)"/></g><g transform="translate(388.479 262.42)"><path class="a" d="M354.449,278.16h-10.48a1.689,1.689,0,0,0,0,3.377h8.792v8.792a1.689,1.689,0,0,0,3.377,0v-10.48A1.689,1.689,0,0,0,354.449,278.16Z" transform="translate(-342.28 -278.16)"/></g><g transform="translate(360.531 243.201)"><path class="a" d="M37.325,54.391a17.409,17.409,0,0,0-22.22-10.6,17.516,17.516,0,0,0-6.486,4.086L.533,55.47a1.689,1.689,0,1,0,2.313,2.461l8.1-7.616.038-.037a14.032,14.032,0,0,1,23.152,5.239,1.689,1.689,0,1,0,3.184-1.127Z" transform="translate(0 -42.78)"/></g><g transform="translate(364.915 262.42)"><path class="a" d="M90.652,278.691a1.689,1.689,0,0,0-2.387-.074l-8.1,7.616-.038.037a13.94,13.94,0,0,1-9.921,4.112h0a13.941,13.941,0,0,1-9.919-4.107,14.118,14.118,0,0,1-3.309-5.243,1.689,1.689,0,1,0-3.184,1.127,17.516,17.516,0,0,0,4.1,6.506,17.294,17.294,0,0,0,12.307,5.1h0a17.3,17.3,0,0,0,12.29-5.083l8.086-7.6A1.688,1.688,0,0,0,90.652,278.691Z" transform="translate(-53.688 -278.159)"/></g></g></svg>