<svg xmlns="http://www.w3.org/2000/svg" viewBox="0 0 41.807 34.82"><defs><style>.a{fill:#0129ad;}</style></defs><g transform="translate(-293.086 -243.201)"><g transform="translate(321.034 244.953)"><path class="a" d="M354.449,64.234a1.689,1.689,0,0,0-1.689,1.689v8.792h-8.792a1.689,1.689,0,1,0,0,3.377h10.48a1.689,1.689,0,0,0,1.689-1.689V65.923A1.689,1.689,0,0,0,354.449,64.234Z" transform="translate(-342.28 -64.234)"/></g><g transform="translate(293.086 262.42)"><path class="a" d="M12.169,278.159H1.689A1.689,1.689,0,0,0,0,279.848v10.48a1.689,1.689,0,1,0,3.377,0v-8.792h8.792a1.689,1.689,0,0,0,0-3.378Z" transform="translate(0 -278.159)"/></g><g transform="translate(297.47 243.201)"><path class="a" d="M90.58,55.47l-8.086-7.6a17.516,17.516,0,0,0-6.486-4.086,17.409,17.409,0,0,0-22.22,10.6,1.689,1.689,0,0,0,3.184,1.127,14.032,14.032,0,0,1,23.152-5.239l.038.037,8.1,7.616A1.689,1.689,0,0,0,90.58,55.47Z" transform="translate(-53.69 -42.78)"/></g><g transform="translate(293.086 262.42)"><path class="a" d="M36.3,280a1.689,1.689,0,0,0-2.155,1.029,14.032,14.032,0,0,1-23.153,5.239l-.038-.037-8.1-7.616A1.689,1.689,0,0,0,.531,281.08l8.086,7.6a17.3,17.3,0,0,0,12.29,5.083h0a17.3,17.3,0,0,0,12.307-5.1,17.519,17.519,0,0,0,4.1-6.506A1.689,1.689,0,0,0,36.3,280Z" transform="translate(0.001 -278.161)"/></g></g></svg>