<svg xmlns="http://www.w3.org/2000/svg" viewBox="0 0 41.807 37.98"><defs><style>.a{fill:#0129ad;}</style></defs><g transform="translate(-159.424 -241.568)"><g transform="translate(186.324 243.496)"><path class="a" d="M342.673,47.029a1.689,1.689,0,0,0-1.689,1.689v9.839h-9.839a1.689,1.689,0,1,0,0,3.377h11.528a1.689,1.689,0,0,0,1.689-1.689V48.718A1.689,1.689,0,0,0,342.673,47.029Z" transform="translate(-329.456 -47.029)"/></g><g transform="translate(159.424 241.568)"><path class="a" d="M41.274,37.337,32.4,28.977a19.1,19.1,0,0,0-7.084-4.461A18.98,18.98,0,1,0,36.886,48.735,1.689,1.689,0,1,0,33.7,47.61,15.6,15.6,0,0,1,4.912,49.14,15.6,15.6,0,0,1,24.188,27.7a15.7,15.7,0,0,1,5.839,3.682l.037.036,8.9,8.377a1.689,1.689,0,0,0,2.315-2.459Z" transform="translate(0 -23.422)"/></g></g></svg>