<svg xmlns="http://www.w3.org/2000/svg" viewBox="0 0 39.67 41.805"><defs><style>.a{fill:#0129ad;}</style></defs><g transform="translate(-92.063 -239.691)"><g transform="translate(92.063 239.691)"><path class="a" d="M21.167,0a8.093,8.093,0,1,0,8.093,8.093A8.1,8.1,0,0,0,21.167,0Zm0,12.809a4.716,4.716,0,1,1,4.716-4.716A4.721,4.721,0,0,1,21.167,12.809Z" transform="translate(-13.074)"/></g><g transform="translate(92.063 265.31)"><path class="a" d="M21.167,313.757a8.093,8.093,0,1,0,8.093,8.093A8.1,8.1,0,0,0,21.167,313.757Zm0,12.809a4.716,4.716,0,1,1,4.716-4.716A4.721,4.721,0,0,1,21.167,326.566Z" transform="translate(-13.074 -313.757)"/></g><g transform="translate(102.993 241.826)"><path class="a" d="M175.188,26.642a1.689,1.689,0,0,0-2.388,0L147.437,52a1.689,1.689,0,1,0,2.388,2.388L175.188,29.03A1.689,1.689,0,0,0,175.188,26.642Z" transform="translate(-146.942 -26.147)"/></g><g transform="translate(116.55 264.2)"><path class="a" d="M327.66,312.439l-11.806-11.785a1.689,1.689,0,1,0-2.386,2.39l11.806,11.785a1.689,1.689,0,1,0,2.386-2.39Z" transform="translate(-312.973 -300.16)"/></g><g transform="translate(102.993 250.622)"><path class="a" d="M158.109,142.648l-8.283-8.283a1.689,1.689,0,0,0-2.388,2.388l8.283,8.283a1.689,1.689,0,1,0,2.388-2.388Z" transform="translate(-146.943 -133.87)"/></g></g></svg>