<svg xmlns="http://www.w3.org/2000/svg" viewBox="0 0 41.805 41.805"><defs><style>.a{fill:#0129ad;}</style></defs><g transform="translate(-628.676 -171.512)"><g transform="translate(628.676 171.512)"><path class="a" d="M30.217,5.184A17.7,17.7,0,1,0,5.184,30.216,17.7,17.7,0,1,0,30.217,5.184ZM17.7,32.023A14.323,14.323,0,1,1,32.023,17.7,14.339,14.339,0,0,1,17.7,32.023Z"/></g><g transform="translate(656.002 198.838)"><path class="a" d="M348.659,346.27l-11.1-11.1a1.689,1.689,0,1,0-2.388,2.388l11.1,11.1a1.689,1.689,0,0,0,2.388-2.388Z" transform="translate(-334.675 -334.674)"/></g></g></svg>