<svg xmlns="http://www.w3.org/2000/svg" viewBox="0 0 41.807 41.805"><defs><style>.a{fill:#0129ad;}</style></defs><g transform="translate(-494.52 -547.027)"><g transform="translate(494.52 547.027)"><path class="a" d="M35.381,26.809a1.19,1.19,0,0,1,1.085-.723h.157a5.182,5.182,0,1,0,0-10.364h-.29a1.193,1.193,0,0,1-.989-.533,1.693,1.693,0,0,0-.11-.347,1.187,1.187,0,0,1,.234-1.311l.093-.093.008-.008a5.182,5.182,0,0,0,0-7.324L35.561,6.1A5.148,5.148,0,0,0,31.9,4.583h0A5.147,5.147,0,0,0,28.233,6.1l-.1.1a1.188,1.188,0,0,1-1.311.234l-.017-.007a1.19,1.19,0,0,1-.723-1.085V5.183a5.182,5.182,0,0,0-10.364,0v.29a1.193,1.193,0,0,1-.533.989,1.694,1.694,0,0,0-.347.11,1.188,1.188,0,0,1-1.311-.234l-.1-.1A5.148,5.148,0,0,0,9.767,4.723h0A5.184,5.184,0,0,0,6.1,13.574l.1.1a1.188,1.188,0,0,1,.234,1.311c-.014.033-.028.066-.04.1a1.187,1.187,0,0,1-1.076.781H5.182a5.182,5.182,0,1,0,0,10.364h.29a1.193,1.193,0,0,1,1.092.723l.007.017a1.188,1.188,0,0,1-.234,1.311l-.1.1-.007.007a5.182,5.182,0,0,0,.007,7.325l.007.007a5.188,5.188,0,0,0,7.323-.008l.1-.1a1.187,1.187,0,0,1,1.311-.234q.049.021.1.04a1.187,1.187,0,0,1,.781,1.077v.133a5.182,5.182,0,0,0,10.365,0v-.29a1.193,1.193,0,0,1,.723-1.092l.017-.007a1.187,1.187,0,0,1,1.311.234l.1.1a5.148,5.148,0,0,0,3.662,1.516h0A5.185,5.185,0,0,0,35.7,28.234l-.1-.1a1.188,1.188,0,0,1-.234-1.311ZM33.2,30.5l.013.013.105.105a1.808,1.808,0,0,1-1.277,3.084h0a1.8,1.8,0,0,1-1.278-.53l-.1-.1-.013-.013a4.594,4.594,0,0,0-7.8,3.268v.3a1.8,1.8,0,1,1-3.609,0v-.157c0-.013,0-.026,0-.04A4.545,4.545,0,0,0,16.3,32.263,4.549,4.549,0,0,0,11.3,33.2l-.013.013-.105.105a1.807,1.807,0,0,1-2.552,0l-.006-.006a1.8,1.8,0,0,1,0-2.549l.006-.006.1-.1.013-.013a4.594,4.594,0,0,0-3.268-7.8h-.3a1.8,1.8,0,0,1,0-3.609h.2A4.545,4.545,0,0,0,9.543,16.3,4.549,4.549,0,0,0,8.608,11.3l-.013-.013-.105-.105A1.807,1.807,0,0,1,9.766,8.1h0a1.8,1.8,0,0,1,1.278.53l.1.1.013.013a4.547,4.547,0,0,0,4.714,1.044,1.689,1.689,0,0,0,.451-.123A4.571,4.571,0,0,0,19.1,5.48v-.3a1.8,1.8,0,1,1,3.609,0v.164a4.594,4.594,0,0,0,7.8,3.262l.013-.013.105-.105A1.793,1.793,0,0,1,31.9,7.961h0a1.793,1.793,0,0,1,1.272.525l.006.006a1.8,1.8,0,0,1,0,2.549l-.005,0-.1.1-.013.013a4.547,4.547,0,0,0-1.044,4.714,1.692,1.692,0,0,0,.123.451,4.571,4.571,0,0,0,4.19,2.77h.3a1.8,1.8,0,1,1,0,3.609H36.46A4.594,4.594,0,0,0,33.2,30.5Z" transform="translate(0 -0.001)"/></g><g transform="translate(508.493 561.001)"><path class="a" d="M178.069,171.142A6.929,6.929,0,1,0,185,178.071,6.937,6.937,0,0,0,178.069,171.142Zm0,10.48a3.551,3.551,0,1,1,3.551-3.551A3.555,3.555,0,0,1,178.069,181.622Z" transform="translate(-171.14 -171.142)"/></g></g></svg>