<svg xmlns="http://www.w3.org/2000/svg" viewBox="0 0 41.805 39.922"><defs><style>.a{fill:#0129ad;}</style></defs><g transform="translate(-559.842 -168.898)"><g transform="translate(559.842 168.898)"><path class="a" d="M41.723,26.667a1.689,1.689,0,0,0-1.362-1.15L27.962,23.7,22.417,12.472a1.689,1.689,0,0,0-3.029,0L13.844,23.7l-12.4,1.812A1.689,1.689,0,0,0,.51,28.4l8.971,8.737L7.364,49.479a1.689,1.689,0,0,0,2.45,1.78L20.9,45.428l11.088,5.831a1.689,1.689,0,0,0,2.45-1.78L32.324,37.135,41.3,28.4A1.689,1.689,0,0,0,41.723,26.667ZM29.331,35.336a1.689,1.689,0,0,0-.486,1.5l1.689,9.846-8.845-4.652a1.689,1.689,0,0,0-1.572,0l-8.845,4.652,1.689-9.846a1.689,1.689,0,0,0-.486-1.5L5.317,28.365l9.893-1.446A1.689,1.689,0,0,0,16.48,26l4.423-8.96L25.325,26a1.689,1.689,0,0,0,1.27.924l9.893,1.446Z" transform="translate(0 -11.531)"/></g></g></svg>