<svg xmlns="http://www.w3.org/2000/svg" viewBox="0 0 41.805 41.801"><defs><style>.a{fill:#0129ad;}</style></defs><g transform="translate(-494.52 -168.898)"><g transform="translate(494.52 168.898)"><path class="a" d="M40.151,17.74,22.93.52A1.689,1.689,0,0,0,21.736.025H1.689A1.689,1.689,0,0,0,0,1.714V21.761a1.689,1.689,0,0,0,.5,1.195l17.22,17.2,0,0a5.661,5.661,0,0,0,4.027,1.667h0a5.661,5.661,0,0,0,4.028-1.671L40.151,25.782l0,0A5.713,5.713,0,0,0,40.151,17.74ZM37.761,23.4,23.388,37.768a2.306,2.306,0,0,1-1.64.681h0a2.305,2.305,0,0,1-1.64-.679h0l0,0L3.378,21.061V3.4H21.036L37.759,20.125A2.326,2.326,0,0,1,37.761,23.4Z" transform="translate(0 -0.025)"/></g><g transform="translate(504.543 178.922)"><path class="a" d="M125.642,123.283a1.689,1.689,0,1,0,.495,1.194A1.7,1.7,0,0,0,125.642,123.283Z" transform="translate(-122.759 -122.788)"/></g></g></svg>