<svg xmlns="http://www.w3.org/2000/svg" viewBox="0 0 41.805 41.805"><defs><style>.a{fill:#0129ad;}</style></defs><g transform="translate(-424.139 -168.898)"><g transform="translate(424.139 168.898)"><path class="a" d="M35.683,6.122A20.9,20.9,0,1,0,6.122,35.683,20.9,20.9,0,1,0,35.683,6.122ZM20.9,38.428A17.525,17.525,0,1,1,38.428,20.9,17.545,17.545,0,0,1,20.9,38.428Z"/></g><g transform="translate(431.824 176.584)"><path class="a" d="M107.344,94.127a13.217,13.217,0,1,0,13.217,13.217A13.232,13.232,0,0,0,107.344,94.127Zm0,23.057a9.84,9.84,0,1,1,9.84-9.84A9.851,9.851,0,0,1,107.344,117.184Z" transform="translate(-94.127 -94.127)"/></g><g transform="translate(439.51 184.27)"><path class="a" d="M193.786,188.254a5.532,5.532,0,1,0,5.532,5.532A5.538,5.538,0,0,0,193.786,188.254Zm0,7.686a2.154,2.154,0,1,1,2.154-2.154A2.156,2.156,0,0,1,193.786,195.94Z" transform="translate(-188.254 -188.254)"/></g></g></svg>