<svg xmlns="http://www.w3.org/2000/svg" viewBox="0 0 37.963 41.807"><defs><style>.a{fill:#0129ad;}</style></defs><g transform="translate(-426.096 -105.047)"><g transform="translate(426.097 105.047)"><path class="a" d="M61.335,16.344a1.689,1.689,0,0,0-1.529-.972H44.426L46.111,1.9A1.689,1.689,0,0,0,43.137.608L23.924,23.665a1.689,1.689,0,0,0,1.3,2.77H40.6L38.916,39.908A1.689,1.689,0,0,0,41.89,41.2L61.1,18.142A1.689,1.689,0,0,0,61.335,16.344ZM42.982,34.611l1.207-9.656a1.689,1.689,0,0,0-1.676-1.9H28.826L42.045,7.2l-1.207,9.656a1.689,1.689,0,0,0,1.676,1.9H56.2Z" transform="translate(-23.532 -0.001)"/></g></g></svg>