<svg xmlns="http://www.w3.org/2000/svg" viewBox="0 0 41.805 36.668"><defs><style>.a{fill:#0129ad;}</style></defs><g transform="translate(-224.664 -174.043)"><g transform="translate(224.664 174.043)"><path class="a" d="M41.086,60.074l-.014-.023-15.575-26,0-.008a5.366,5.366,0,0,0-7.372-1.805,5.389,5.389,0,0,0-1.805,1.805l0,.008L.735,60.05l-.014.023a5.367,5.367,0,0,0,4.588,8.05H36.5a5.366,5.366,0,0,0,4.588-8.05Zm-4.618,4.672H5.339a1.989,1.989,0,0,1-1.7-2.974L19.205,35.789a2,2,0,0,1,.667-.666,1.989,1.989,0,0,1,2.73.666L38.167,61.773a1.989,1.989,0,0,1-1.7,2.974Z" transform="translate(0 -31.455)"/></g></g></svg>