<svg xmlns="http://www.w3.org/2000/svg" viewBox="0 0 41.713 41.805"><defs><style>.a{fill:#0129ad;}</style></defs><g transform="translate(-559.924 -105.047)"><g transform="translate(559.923 130.696)"><path class="a" d="M21.422,314.134c-11.7,0-20.857,5.419-20.857,12.338v2.13a1.689,1.689,0,1,0,3.377,0v-2.13c0-4.857,8-8.96,17.479-8.96s17.479,4.1,17.479,8.96v2.13a1.689,1.689,0,1,0,3.377,0v-2.13C42.278,319.553,33.117,314.134,21.422,314.134Z" transform="translate(-0.565 -314.134)"/></g><g transform="translate(570.664 105.047)"><path class="a" d="M152.406,8.71a10.208,10.208,0,1,0-16.179,9.7,10.131,10.131,0,0,0,6.06,2.011,10.348,10.348,0,0,0,1.519-.113A10.219,10.219,0,0,0,152.406,8.71Zm-9.1,8.254a6.83,6.83,0,1,1,5.755-7.758A6.785,6.785,0,0,1,143.311,16.964Z" transform="translate(-132.1 0)"/></g></g></svg>