<svg xmlns="http://www.w3.org/2000/svg" viewBox="0 0 41.805 31.326"><defs><style>.a{fill:#0129ad;}</style></defs><g transform="translate(-424.139 -467.418)"><g transform="translate(424.139 467.418)"><path class="a" d="M41.627,79.085a34.643,34.643,0,0,0-5.3-7.387,26.443,26.443,0,0,0-6.448-5.127A18.433,18.433,0,0,0,20.9,64.178a18.432,18.432,0,0,0-8.976,2.394A26.44,26.44,0,0,0,5.478,71.7a34.64,34.64,0,0,0-5.3,7.387,1.689,1.689,0,0,0,0,1.51,34.634,34.634,0,0,0,5.3,7.387,26.442,26.442,0,0,0,6.448,5.127A18.432,18.432,0,0,0,20.9,95.5a18.432,18.432,0,0,0,8.976-2.394,26.443,26.443,0,0,0,6.448-5.127,34.645,34.645,0,0,0,5.3-7.387A1.689,1.689,0,0,0,41.627,79.085ZM20.9,92.126c-4.561,0-8.9-2.15-12.9-6.39a32.826,32.826,0,0,1-4.387-5.9c1.609-2.782,7.8-12.285,17.287-12.285,4.561,0,8.9,2.15,12.9,6.39a32.825,32.825,0,0,1,4.387,5.9C36.581,82.622,30.388,92.126,20.9,92.126Z" transform="translate(0 -64.178)"/></g><g transform="translate(438.113 476.152)"><path class="a" d="M178.069,171.142A6.929,6.929,0,1,0,185,178.071,6.937,6.937,0,0,0,178.069,171.142Zm0,10.48a3.551,3.551,0,1,1,3.551-3.551A3.555,3.555,0,0,1,178.069,181.622Z" transform="translate(-171.14 -171.142)"/></g></g></svg>