<svg xmlns="http://www.w3.org/2000/svg" viewBox="0 0 41.805 41.805"><defs><style>.a{fill:#0129ad;}</style></defs><g transform="translate(-293.086 -767.975)"><g transform="translate(293.086 767.975)"><path class="a" d="M41.311,11.754,30.051.495A1.689,1.689,0,0,0,28.857,0H12.948a1.689,1.689,0,0,0-1.194.495L.495,11.754A1.689,1.689,0,0,0,0,12.948V28.857a1.689,1.689,0,0,0,.495,1.194L11.754,41.311a1.689,1.689,0,0,0,1.194.495H28.857a1.689,1.689,0,0,0,1.194-.495L41.311,30.051a1.689,1.689,0,0,0,.495-1.194V12.948A1.689,1.689,0,0,0,41.311,11.754Zm-2.883,16.4-10.27,10.27H13.648L3.377,28.158V13.648l10.27-10.27h14.51l10.27,10.27Z"/></g><g transform="translate(312.3 779.503)"><path class="a" d="M237.007,141.191a1.689,1.689,0,0,0-1.689,1.689v7.686a1.689,1.689,0,1,0,3.377,0V142.88A1.689,1.689,0,0,0,237.007,141.191Z" transform="translate(-235.318 -141.191)"/></g><g transform="translate(312.3 794.874)"><path class="a" d="M238.2,329.939a1.689,1.689,0,1,0,.495,1.194A1.7,1.7,0,0,0,238.2,329.939Z" transform="translate(-235.317 -329.444)"/></g></g></svg>