<svg xmlns="http://www.w3.org/2000/svg" viewBox="0 0 41.805 41.805"><defs><style>.a{fill:#0129ad;}</style></defs><g transform="translate(-628.676 -387.807)"><g transform="translate(628.676 387.807)"><path class="a" d="M35.683,6.122A20.9,20.9,0,1,0,6.122,35.683,20.9,20.9,0,1,0,35.683,6.122ZM20.9,38.428A17.525,17.525,0,1,1,38.428,20.9,17.545,17.545,0,0,1,20.9,38.428Z"/></g><g transform="translate(628.676 407.021)"><path class="a" d="M40.117,235.318H1.689a1.689,1.689,0,1,0,0,3.377H40.117a1.689,1.689,0,1,0,0-3.377Z" transform="translate(0 -235.318)"/></g><g transform="translate(640.204 387.807)"><path class="a" d="M151.812.55a1.689,1.689,0,0,0-2.494,0,31.076,31.076,0,0,0-8.127,20.318q0,.035,0,.07a31.076,31.076,0,0,0,8.127,20.318,1.689,1.689,0,0,0,2.494,0,31.076,31.076,0,0,0,8.127-20.318q0-.035,0-.07A31.076,31.076,0,0,0,151.812.55Zm-1.247,36.964a27.7,27.7,0,0,1-6-16.611,27.7,27.7,0,0,1,6-16.611,27.7,27.7,0,0,1,6,16.611A27.7,27.7,0,0,1,150.566,37.514Z" transform="translate(-141.191)"/></g></g></svg>