<svg xmlns="http://www.w3.org/2000/svg" viewBox="0 0 41.805 41.807"><defs><style>.a{fill:#0129ad;}</style></defs><g transform="translate(-159.424 -105.047)"><g transform="translate(159.424 105.047)"><path class="a" d="M32.039,5.5A18.768,18.768,0,1,0,5.5,32.039,18.768,18.768,0,0,0,32.039,5.5ZM18.768,34.158a15.39,15.39,0,1,1,15.39-15.39A15.408,15.408,0,0,1,18.768,34.158Z"/></g><g transform="translate(188.565 134.188)"><path class="a" d="M369.07,366.681l-9.287-9.287a1.689,1.689,0,0,0-2.388,2.388l9.287,9.287a1.689,1.689,0,1,0,2.388-2.388Z" transform="translate(-356.9 -356.899)"/></g><g transform="translate(176.503 115.721)"><path class="a" d="M210.861,130.732a1.689,1.689,0,0,0-1.689,1.689V145.23a1.689,1.689,0,1,0,3.377,0V132.421A1.689,1.689,0,0,0,210.861,130.732Z" transform="translate(-209.172 -130.732)"/></g><g transform="translate(170.098 122.126)"><path class="a" d="M145.23,209.172H132.421a1.689,1.689,0,1,0,0,3.377H145.23a1.689,1.689,0,0,0,0-3.377Z" transform="translate(-130.732 -209.172)"/></g></g></svg>