<svg xmlns="http://www.w3.org/2000/svg" viewBox="0 0 41.805 28.996"><defs><style>.a{fill:#0129ad;}</style></defs><g transform="translate(-159.424 -766.832)"><g transform="translate(165.828 775.372)"><path class="a" d="M105.746,183.025H80.128a1.689,1.689,0,0,0,0,3.377h25.619a1.689,1.689,0,0,0,0-3.377Z" transform="translate(-78.439 -183.025)"/></g><g transform="translate(159.424 766.832)"><path class="a" d="M40.117,78.439H1.689a1.689,1.689,0,0,0,0,3.377H40.117a1.689,1.689,0,0,0,0-3.377Z" transform="translate(0 -78.439)"/></g><g transform="translate(159.424 783.911)"><path class="a" d="M40.117,287.61H1.689a1.689,1.689,0,0,0,0,3.377H40.117a1.689,1.689,0,0,0,0-3.377Z" transform="translate(0 -287.61)"/></g><g transform="translate(165.828 792.451)"><path class="a" d="M105.746,392.2H80.128a1.689,1.689,0,0,0,0,3.377h25.619a1.689,1.689,0,0,0,0-3.377Z" transform="translate(-78.439 -392.197)"/></g></g></svg>