<svg xmlns="http://www.w3.org/2000/svg" viewBox="0 0 41.805 41.797"><defs><style>.a{fill:#0129ad;}</style></defs><g transform="translate(-91 -696.531)"><g transform="translate(91 696.531)"><path class="a" d="M40.117,28.87a4.08,4.08,0,0,1-4.075-4.075V15.187a15.139,15.139,0,0,0-30.277,0v9.607A4.08,4.08,0,0,1,1.689,28.87a1.689,1.689,0,0,0,0,3.378H40.117a1.689,1.689,0,0,0,0-3.378Zm-32.191,0a7.41,7.41,0,0,0,1.216-4.075V15.187a11.761,11.761,0,1,1,23.522,0v9.607a7.41,7.41,0,0,0,1.216,4.075Z" transform="translate(0 -0.049)"/></g><g transform="translate(106.89 733.037)"><path class="a" d="M203.788,447.376a1.689,1.689,0,0,0-2.308.613,2.154,2.154,0,0,1-3.727,0,1.689,1.689,0,1,0-2.921,1.695,5.533,5.533,0,0,0,9.57,0A1.689,1.689,0,0,0,203.788,447.376Z" transform="translate(-194.604 -447.148)"/></g></g></svg>