<svg xmlns="http://www.w3.org/2000/svg" viewBox="0 0 76.284 65.893"><defs><style>.a{fill:#0a61ff;}</style></defs><g transform="translate(-630.858 -409.709)"><path class="a" d="M16266.935,19387.891a5.111,5.111,0,0,1-5.2-5.207v-22.537a1.734,1.734,0,0,1,3.469,0v22.537a1.638,1.638,0,0,0,1.732,1.736h62.417a1.64,1.64,0,0,0,1.732-1.736v-22.537a1.735,1.735,0,0,1,3.47,0v22.537a5.115,5.115,0,0,1-5.2,5.207Zm26.007-19.074a1.638,1.638,0,0,1-1.736-1.732v-5.551l-27.215-6.068a5.206,5.206,0,0,1-3.989-5.025v-11.1a5.107,5.107,0,0,1,5.2-5.2h65.882a5.107,5.107,0,0,1,5.2,5.2v11.1a5.2,5.2,0,0,1-3.989,5.025l-27.219,6.068v5.551a1.637,1.637,0,0,1-1.732,1.732Zm1.732-3.469h6.938v-6.934h-6.938Zm8.671-10.4a1.64,1.64,0,0,1,1.732,1.738v1.387l26.353-5.9a1.684,1.684,0,0,0,1.387-1.73v-11.1a1.635,1.635,0,0,0-1.732-1.732H16265.2a1.635,1.635,0,0,0-1.732,1.732v11.1a1.684,1.684,0,0,0,1.387,1.73l26.349,5.9v-1.387a1.643,1.643,0,0,1,1.736-1.738Zm5.2-26.006v-1.738a1.64,1.64,0,0,0-1.732-1.732h-17.341a1.638,1.638,0,0,0-1.732,1.732v1.738a1.735,1.735,0,0,1-3.47,0v-1.738a5.113,5.113,0,0,1,5.2-5.2h17.341a5.109,5.109,0,0,1,5.2,5.2v1.738a1.732,1.732,0,0,1-3.465,0Z" transform="translate(-15629.143 -18912.289)"/></g></svg>