<svg xmlns="http://www.w3.org/2000/svg" viewBox="0 0 78.748 90.27"><defs><style>.a{fill:#0a61ff;}</style></defs><g transform="translate(-809.126 -879.066)"><path class="a" d="M202.3,314.9H190.546a1.446,1.446,0,0,0-1.446,1.446V328.1a1.446,1.446,0,0,0,1.446,1.445H202.3a1.446,1.446,0,0,0,1.446-1.445V316.345A1.419,1.419,0,0,0,202.3,314.9Zm-1.424,10.377a1.4,1.4,0,0,1-1.4,1.4h-6.084a1.4,1.4,0,0,1-1.4-1.4v-6.084a1.4,1.4,0,0,1,1.4-1.4h6.084a1.4,1.4,0,0,1,1.4,1.4Z" transform="translate(660.824 632.106)"/><path class="a" d="M121.1,314.9H109.346a1.446,1.446,0,0,0-1.446,1.446V328.1a1.446,1.446,0,0,0,1.446,1.445H121.1a1.446,1.446,0,0,0,1.446-1.445V316.345A1.446,1.446,0,0,0,121.1,314.9Zm-1.424,10.377a1.4,1.4,0,0,1-1.4,1.4h-6.084a1.4,1.4,0,0,1-1.4-1.4v-6.084a1.4,1.4,0,0,1,1.4-1.4h6.084a1.4,1.4,0,0,1,1.4,1.4Z" transform="translate(724.505 632.106)"/><path class="a" d="M121.1,233.7H109.346a1.446,1.446,0,0,0-1.446,1.445V246.9a1.446,1.446,0,0,0,1.446,1.446H121.1a1.446,1.446,0,0,0,1.446-1.446V235.146A1.446,1.446,0,0,0,121.1,233.7Zm-1.424,10.356a1.4,1.4,0,0,1-1.4,1.4h-6.084a1.4,1.4,0,0,1-1.4-1.4v-6.084a1.4,1.4,0,0,1,1.4-1.4h6.084a1.4,1.4,0,0,1,1.4,1.4Z" transform="translate(724.505 695.787)"/><path class="a" d="M39.9,314.9H28.146a1.446,1.446,0,0,0-1.446,1.446V328.1a1.446,1.446,0,0,0,1.446,1.445H39.9a1.446,1.446,0,0,0,1.446-1.445V316.345A1.446,1.446,0,0,0,39.9,314.9Zm-1.446,10.377a1.4,1.4,0,0,1-1.4,1.4H30.972a1.4,1.4,0,0,1-1.4-1.4v-6.084a1.4,1.4,0,0,1,1.4-1.4h6.084a1.4,1.4,0,0,1,1.4,1.4Z" transform="translate(788.186 632.106)"/><path class="a" d="M283.6,180.3H271.846a1.446,1.446,0,0,0-1.446,1.445V186.1a2.845,2.845,0,0,0,2.848,2.848H283.6a1.446,1.446,0,0,0,1.446-1.446v-5.76A1.446,1.446,0,0,0,283.6,180.3Zm-1.445,4.358a1.4,1.4,0,0,1-1.4,1.4h-6.084a1.4,1.4,0,0,1-1.4-1.4v-.086a1.4,1.4,0,0,1,1.4-1.4h6.084a1.4,1.4,0,0,1,1.4,1.4Z" transform="translate(597.064 737.666)"/><path class="a" d="M202.3,233.7H190.546a1.446,1.446,0,0,0-1.446,1.445V246.9a1.446,1.446,0,0,0,1.446,1.446H202.3a1.446,1.446,0,0,0,1.446-1.446V235.146A1.419,1.419,0,0,0,202.3,233.7Zm-1.424,10.356a1.4,1.4,0,0,1-1.4,1.4h-6.084a1.4,1.4,0,0,1-1.4-1.4v-6.084a1.4,1.4,0,0,1,1.4-1.4h6.084a1.4,1.4,0,0,1,1.4,1.4Z" transform="translate(660.824 695.787)"/><path class="a" d="M39.9,233.7H28.146a1.446,1.446,0,0,0-1.446,1.445V246.9a1.446,1.446,0,0,0,1.446,1.446H39.9a1.446,1.446,0,0,0,1.446-1.446V235.146A1.446,1.446,0,0,0,39.9,233.7Zm-1.446,10.356a1.4,1.4,0,0,1-1.4,1.4H30.972a1.4,1.4,0,0,1-1.4-1.4v-6.084a1.4,1.4,0,0,1,1.4-1.4h6.084a1.4,1.4,0,0,1,1.4,1.4Z" transform="translate(788.186 695.787)"/><path class="a" d="M202.3,180.3H190.546a1.446,1.446,0,0,0-1.446,1.445v5.739a1.446,1.446,0,0,0,1.446,1.445H202.3a1.446,1.446,0,0,0,1.446-1.445v-5.739A1.419,1.419,0,0,0,202.3,180.3Zm-1.424,4.358a1.4,1.4,0,0,1-1.4,1.4h-6.084a1.4,1.4,0,0,1-1.4-1.4v-.086a1.4,1.4,0,0,1,1.4-1.4h6.084a1.4,1.4,0,0,1,1.4,1.4Z" transform="translate(660.824 737.666)"/><path class="a" d="M71.542,0H7.206A7.219,7.219,0,0,0,0,7.206V83.063a7.219,7.219,0,0,0,7.206,7.206H71.542a7.219,7.219,0,0,0,7.206-7.206V7.206A7.219,7.219,0,0,0,71.542,0Zm4.315,83.063a4.328,4.328,0,0,1-4.315,4.315H7.206a4.328,4.328,0,0,1-4.315-4.315V7.206A4.328,4.328,0,0,1,7.206,2.891H71.542a4.328,4.328,0,0,1,4.315,4.315Z" transform="translate(809.126 879.066)"/><path class="a" d="M283.6,233.7H271.846a1.446,1.446,0,0,0-1.446,1.445v29.277a1.446,1.446,0,0,0,1.446,1.446H283.6a1.446,1.446,0,0,0,1.446-1.446V246.731a1.48,1.48,0,0,0-1.4-1.51,1.442,1.442,0,0,0-1.489,1.445V261.6a1.4,1.4,0,0,1-1.4,1.4h-6.084a1.4,1.4,0,0,1-1.4-1.4V237.972a1.4,1.4,0,0,1,1.4-1.4h6.084a1.4,1.4,0,0,1,1.4,1.4v2.848a1.48,1.48,0,0,0,1.4,1.51,1.442,1.442,0,0,0,1.489-1.446v-5.76A1.441,1.441,0,0,0,283.6,233.7Z" transform="translate(597.064 695.787)"/><path class="a" d="M92.482,35.6H28.146A1.446,1.446,0,0,0,26.7,37.046V60.562a1.446,1.446,0,0,0,1.446,1.446H39.839a1.48,1.48,0,0,0,1.51-1.4A1.442,1.442,0,0,0,39.9,59.117H30.972a1.4,1.4,0,0,1-1.4-1.4V39.872a1.4,1.4,0,0,1,1.4-1.4H89.634a1.4,1.4,0,0,1,1.4,1.4V57.714a1.4,1.4,0,0,1-1.4,1.4h-43.9a1.48,1.48,0,0,0-1.51,1.4,1.442,1.442,0,0,0,1.446,1.489H92.482a1.446,1.446,0,0,0,1.446-1.446V37.046A1.446,1.446,0,0,0,92.482,35.6Z" transform="translate(788.186 851.147)"/><path class="a" d="M272.945,65.191h5.76a1.446,1.446,0,1,0,0-2.891h-5.76a1.446,1.446,0,0,0,0,2.891Z" transform="translate(596.202 830.208)"/><path class="a" d="M272.945,118.591h5.76a1.446,1.446,0,1,0,0-2.891h-5.76a1.446,1.446,0,0,0,0,2.891Z" transform="translate(596.202 788.328)"/><path class="a" d="M271.5,85.386a1.446,1.446,0,0,0,2.891,0v-3.84a1.446,1.446,0,0,0-2.891,0Z" transform="translate(596.202 816.248)"/></g></svg>