<svg xmlns="http://www.w3.org/2000/svg" viewBox="0 0 41.73 41.805"><defs><style>.a{fill:#0129ad;}</style></defs><g transform="translate(-91 -315.869)"><g transform="translate(91 315.869)"><path class="a" d="M37.422,24.873l-.015,0a23.092,23.092,0,0,1-5.045-1.256,5.561,5.561,0,0,0-5.85,1.248l-.007.007-1.518,1.518A29.184,29.184,0,0,1,15.8,17.205l1.518-1.518.007-.007a5.559,5.559,0,0,0,1.249-5.847,23.106,23.106,0,0,1-1.258-5.049l0-.015A5.56,5.56,0,0,0,11.828,0H6c-.164,0-.33.008-.494.023A5.545,5.545,0,0,0,.486,6.045c0,.009,0,.018,0,.026A40.039,40.039,0,0,0,6.667,23.523,39.545,39.545,0,0,0,18.746,35.6,40.045,40.045,0,0,0,36.117,41.78l.03,0c.166.015.334.023.5.023h.02a5.546,5.546,0,0,0,5.523-5.561V30.478A5.545,5.545,0,0,0,37.422,24.873Zm1.393,5.545c0,.014,0,.028,0,.042v5.792a2.168,2.168,0,0,1-2.158,2.177c-.062,0-.128,0-.191-.008a36.652,36.652,0,0,1-15.888-5.656l-.013-.008a36.146,36.146,0,0,1-11.05-11.05l-.008-.012A36.644,36.644,0,0,1,3.849,5.729,2.17,2.17,0,0,1,5.814,3.386c.064-.006.129-.009.192-.009h5.823a2.174,2.174,0,0,1,2.146,1.858,26.49,26.49,0,0,0,1.442,5.783,2.174,2.174,0,0,1-.485,2.285l-2.445,2.445a1.689,1.689,0,0,0-.274,2.029,32.558,32.558,0,0,0,12.2,12.2,1.689,1.689,0,0,0,2.029-.274l2.445-2.445a2.176,2.176,0,0,1,2.288-.484,26.485,26.485,0,0,0,5.779,1.441A2.168,2.168,0,0,1,38.815,30.418Z" transform="translate(-0.463)"/></g></g></svg>