<svg xmlns="http://www.w3.org/2000/svg" viewBox="0 0 41.805 41.805"><defs><style>.a{fill:#0129ad;}</style></defs><g transform="translate(-424.139 -547.027)"><g transform="translate(424.139 547.027)"><path class="a" d="M41.8,18.675A19.793,19.793,0,0,0,23.132,0l-.093,0H21.925a19.827,19.827,0,0,0-18,28.063L.088,39.583a1.689,1.689,0,0,0,2.136,2.136l11.519-3.84a19.679,19.679,0,0,0,8.179,1.792h.05A19.854,19.854,0,0,0,41.806,19.834V18.768C41.806,18.737,41.806,18.706,41.8,18.675Zm-3.375,1.16v0A16.476,16.476,0,0,1,21.967,36.293h-.041a16.279,16.279,0,0,1-7.305-1.74,1.689,1.689,0,0,0-1.3-.095L4.36,37.447l2.988-8.965a1.689,1.689,0,0,0-.095-1.3A16.433,16.433,0,0,1,14.62,5.117a16.282,16.282,0,0,1,7.31-1.74h1.061A16.4,16.4,0,0,1,38.429,18.816v1.02Z" transform="translate(-0.001)"/></g></g></svg>