<svg xmlns="http://www.w3.org/2000/svg" viewBox="0 0 41.805 39.977"><defs><style>.a{fill:#0129ad;}</style></defs><g transform="translate(-360.531 -618.473)"><g transform="translate(360.531 618.473)"><path class="a" d="M38.287,27.814A1.689,1.689,0,0,0,36.6,29.5v1.7a16.61,16.61,0,0,1-16.61,16.6h-.01a16.61,16.61,0,0,1,.009-33.221H20a16.507,16.507,0,0,1,6.751,1.438,1.689,1.689,0,0,0,1.375-3.085A19.861,19.861,0,0,0,20,11.206h-.012a19.988,19.988,0,0,0-.011,39.976h.012A19.988,19.988,0,0,0,39.976,31.2V29.5A1.689,1.689,0,0,0,38.287,27.814Z" transform="translate(0 -11.206)"/></g><g transform="translate(373.341 620.313)"><path class="a" d="M185.381,34.241a1.689,1.689,0,0,0-2.388,0L164.058,53.175l-4.3-4.3a1.689,1.689,0,1,0-2.388,2.388l5.49,5.49a1.689,1.689,0,0,0,2.388,0l20.129-20.129A1.689,1.689,0,0,0,185.381,34.241Z" transform="translate(-156.879 -33.746)"/></g></g></svg>