<svg xmlns="http://www.w3.org/2000/svg" viewBox="0 0 41.805 41.805"><defs><style>.a{fill:#0129ad;}</style></defs><g transform="translate(-91 -618.473)"><g transform="translate(91 618.473)"><path class="a" d="M35.683,6.122A20.9,20.9,0,1,0,6.122,35.683,20.9,20.9,0,1,0,35.683,6.122ZM20.9,38.428A17.525,17.525,0,1,1,38.428,20.9,17.545,17.545,0,0,1,20.9,38.428Z"/></g><g transform="translate(110.214 626.158)"><path class="a" d="M243.966,111.914l-5.27-5.27V95.816a1.689,1.689,0,0,0-3.377,0v11.528a1.689,1.689,0,0,0,.495,1.194l5.764,5.764a1.689,1.689,0,1,0,2.388-2.388Z" transform="translate(-235.319 -94.127)"/></g></g></svg>