<svg xmlns="http://www.w3.org/2000/svg" viewBox="0 0 88.508 56.898"><defs><style>.a{fill:#0a61ff;}</style></defs><g transform="translate(-998.2 -568.057)"><path class="a" d="M16267.907,19378.9a7.917,7.917,0,0,1-7.906-7.9v-41.09a7.917,7.917,0,0,1,7.906-7.906h72.7a7.915,7.915,0,0,1,7.9,7.906V19371a7.916,7.916,0,0,1-7.9,7.9Zm-4.742-48.992V19371a4.746,4.746,0,0,0,4.742,4.738h72.7a4.747,4.747,0,0,0,4.738-4.738v-41.09a4.748,4.748,0,0,0-4.738-4.744h-72.7A4.747,4.747,0,0,0,16263.165,19329.908Zm63.217,39.818a9.483,9.483,0,1,1,4.736,1.271A9.491,9.491,0,0,1,16326.382,19369.727Zm2.629-14.176a9.479,9.479,0,0,1,0,11.918,6.176,6.176,0,0,0,2.107.367,6.322,6.322,0,1,0-2.107-12.285Zm-13.693,5.961a6.328,6.328,0,0,0,6.32,6.324,6.246,6.246,0,0,0,2.115-.367,9.465,9.465,0,0,1-.008-11.918,6.326,6.326,0,0,0-8.428,5.961Zm9.482,0a2.389,2.389,0,1,0,1.582-4.18A6.286,6.286,0,0,0,16324.8,19361.512Zm-56.893,6.324v-3.162H16309v3.162Zm31.609-9.482v-3.162H16309v3.162Zm-15.807,0v-3.162h9.48v3.162Zm-15.8,0v-3.162h9.482v3.162Zm1.582-12.645a1.58,1.58,0,0,1-1.582-1.582v-12.643a1.58,1.58,0,0,1,1.582-1.576h15.8a1.579,1.579,0,0,1,1.582,1.576v12.643a1.579,1.579,0,0,1-1.582,1.582Zm1.576-3.154h12.645v-3.166h-3.164v-3.154h3.164v-3.17h-12.645v3.162h3.162v3.162h-3.162Zm64.8-4.746v-6.32h3.162v6.32Zm-6.32,0v-6.32h3.156v6.32Zm-6.326,0v-6.32h3.164v6.32Zm-6.318,0v-6.32h3.164v6.32Z" transform="translate(-15261.801 -18753.945)"/></g></svg>