<svg xmlns="http://www.w3.org/2000/svg" viewBox="0 0 37.963 41.805"><defs><style>.a{fill:#0129ad;}</style></defs><g transform="translate(-161.301 -547.027)"><g transform="translate(161.301 575.848)"><path class="a" d="M59.807,352.977a1.689,1.689,0,0,0-1.689,1.689v5.764a2.156,2.156,0,0,1-2.154,2.154h-26.9a2.156,2.156,0,0,1-2.154-2.154v-5.764a1.689,1.689,0,1,0-3.377,0v5.764a5.538,5.538,0,0,0,5.532,5.532h26.9A5.538,5.538,0,0,0,61.5,360.43v-5.764A1.689,1.689,0,0,0,59.807,352.977Z" transform="translate(-23.533 -352.977)"/></g><g transform="translate(170.908 566.241)"><path class="a" d="M159.445,235.812a1.689,1.689,0,0,0-2.388,0l-6.492,6.492-6.491-6.492a1.689,1.689,0,0,0-2.388,2.388l7.686,7.686a1.689,1.689,0,0,0,2.388,0l7.686-7.686A1.689,1.689,0,0,0,159.445,235.812Z" transform="translate(-141.191 -235.317)"/></g><g transform="translate(178.593 547.027)"><path class="a" d="M237.007,0a1.689,1.689,0,0,0-1.689,1.689v26.9a1.689,1.689,0,1,0,3.377,0V1.689A1.689,1.689,0,0,0,237.007,0Z" transform="translate(-235.318)"/></g></g></svg>