<svg xmlns="http://www.w3.org/2000/svg" viewBox="0 0 34.119 41.805"><defs><style>.a{fill:#0129ad;}</style></defs><g transform="translate(-94.838 -547.027)"><g transform="translate(94.838 547.027)"><path class="a" d="M78.583,15.484a40.519,40.519,0,0,0-5.512-7.713A59.926,59.926,0,0,0,65.137.337a1.689,1.689,0,0,0-2.027,0,59.913,59.913,0,0,0-7.935,7.434,40.515,40.515,0,0,0-5.512,7.713,19.828,19.828,0,0,0-2.6,9.261,17.06,17.06,0,1,0,34.12,0A19.83,19.83,0,0,0,78.583,15.484ZM64.124,38.428A13.7,13.7,0,0,1,50.441,24.745c0-8.9,10.358-18.154,13.682-20.9,3.326,2.743,13.682,12,13.682,20.9A13.7,13.7,0,0,1,64.124,38.428Z" transform="translate(-47.064 0)"/></g></g></svg>