<svg xmlns="http://www.w3.org/2000/svg" viewBox="0 0 41.805 37.963"><defs><style>.a{fill:#0129ad;}</style></defs><g transform="translate(-91 -467.416)"><g transform="translate(91 467.416)"><path class="a" d="M36.274,29.3H19.885l-3.341-5.012a1.689,1.689,0,0,0-1.405-.752H5.532A5.538,5.538,0,0,0,0,29.063v26.9a5.538,5.538,0,0,0,5.532,5.532H36.274a5.538,5.538,0,0,0,5.532-5.532V34.827A5.538,5.538,0,0,0,36.274,29.3Zm2.154,26.667a2.156,2.156,0,0,1-2.154,2.154H5.532a2.156,2.156,0,0,1-2.154-2.154v-26.9a2.156,2.156,0,0,1,2.154-2.154h8.7l3.341,5.012a1.689,1.689,0,0,0,1.405.752H36.274a2.156,2.156,0,0,1,2.154,2.154V55.962Z" transform="translate(0 -23.531)"/></g></g></svg>