<svg xmlns="http://www.w3.org/2000/svg" viewBox="0 0 41.807 41.807"><defs><style>.a{fill:#0129ad;}</style></defs><g transform="translate(-559.842 -387.807)"><g transform="translate(559.842 387.807)"><path class="a" d="M14.5,0H3.824A3.828,3.828,0,0,0,0,3.824V14.5a3.828,3.828,0,0,0,3.824,3.824H14.5A3.828,3.828,0,0,0,18.322,14.5V3.824A3.828,3.828,0,0,0,14.5,0Zm.446,14.5a.447.447,0,0,1-.446.446H3.824a.447.447,0,0,1-.446-.446V3.824a.447.447,0,0,1,.446-.446H14.5a.447.447,0,0,1,.446.446Z"/></g><g transform="translate(583.326 387.807)"><path class="a" d="M302.109,0H291.435a3.828,3.828,0,0,0-3.824,3.824V14.5a3.828,3.828,0,0,0,3.824,3.824h10.675a3.828,3.828,0,0,0,3.824-3.824V3.824A3.828,3.828,0,0,0,302.109,0Zm.446,14.5a.447.447,0,0,1-.446.446H291.435a.447.447,0,0,1-.446-.446V3.824a.447.447,0,0,1,.446-.446h10.675a.447.447,0,0,1,.446.446Z" transform="translate(-287.611)"/></g><g transform="translate(583.326 411.29)"><path class="a" d="M302.109,287.611H291.435a3.828,3.828,0,0,0-3.824,3.824v10.674a3.828,3.828,0,0,0,3.824,3.824h10.675a3.828,3.828,0,0,0,3.824-3.824V291.435A3.828,3.828,0,0,0,302.109,287.611Zm.446,14.5a.447.447,0,0,1-.446.446H291.435a.447.447,0,0,1-.446-.446V291.435a.447.447,0,0,1,.446-.446h10.675a.447.447,0,0,1,.446.446Z" transform="translate(-287.611 -287.611)"/></g><g transform="translate(559.842 411.29)"><path class="a" d="M14.5,287.611H3.824A3.828,3.828,0,0,0,0,291.435v10.674a3.828,3.828,0,0,0,3.824,3.824H14.5a3.828,3.828,0,0,0,3.824-3.824V291.435A3.828,3.828,0,0,0,14.5,287.611Zm.446,14.5a.447.447,0,0,1-.446.446H3.824a.447.447,0,0,1-.446-.446V291.435a.447.447,0,0,1,.446-.446H14.5a.447.447,0,0,1,.446.446Z" transform="translate(0 -287.611)"/></g></g></svg>