<svg xmlns="http://www.w3.org/2000/svg" viewBox="0 0 41.805 36.898"><defs><style>.a{fill:#0129ad;}</style></defs><g transform="translate(-494.52 -387.807)"><g transform="translate(494.52 387.807)"><path class="a" d="M469.714,72.389h0Z" transform="translate(-431.361 -68.932)"/><path class="a" d="M38.359,33.51l-.006-.006a11.815,11.815,0,0,0-16.69,0l0,0,0,0-.755.755L20.15,33.5A11.8,11.8,0,0,0,3.457,50.2L19.711,66.45a1.689,1.689,0,0,0,2.389,0L38.353,50.2A11.815,11.815,0,0,0,38.359,33.51Zm-2.4,14.3L20.905,62.867,5.846,47.808A8.426,8.426,0,0,1,17.762,35.892l1.949,1.949a1.689,1.689,0,0,0,2.388,0l1.949-1.949h0l0,0a8.433,8.433,0,0,1,11.909,0l.007.007A8.433,8.433,0,0,1,35.964,47.808Z" transform="translate(0 -30.046)"/></g></g></svg>