<svg xmlns="http://www.w3.org/2000/svg" viewBox="0 0 41.805 41.807"><defs><style>.a{fill:#0129ad;}</style></defs><g transform="translate(-494.52 -467.418)"><g transform="translate(494.52 476.256)"><path class="a" d="M32.622,129.66a1.689,1.689,0,0,0-2.367-.319,15.794,15.794,0,0,1-9.366,3.253C16.333,132.589,12,130.44,8,126.2a32.822,32.822,0,0,1-4.384-5.891,30.314,30.314,0,0,1,7.934-9.038,1.689,1.689,0,0,0-2.05-2.684A33.691,33.691,0,0,0,.2,119.51a1.689,1.689,0,0,0-.022,1.554,34.634,34.634,0,0,0,5.3,7.387,26.442,26.442,0,0,0,6.448,5.127,18.432,18.432,0,0,0,8.976,2.394h.028A19.148,19.148,0,0,0,32.3,132.027,1.689,1.689,0,0,0,32.622,129.66Z" transform="translate(0 -108.244)"/></g><g transform="translate(510.065 472.658)"><path class="a" d="M216.471,79.084a34.643,34.643,0,0,0-5.3-7.387,26.439,26.439,0,0,0-6.448-5.127,18.428,18.428,0,0,0-8.972-2.394,17.628,17.628,0,0,0-4.057.464,1.689,1.689,0,1,0,.77,3.289,14.4,14.4,0,0,1,3.283-.375c4.561,0,8.9,2.15,12.9,6.39a32.815,32.815,0,0,1,4.385,5.892,30.686,30.686,0,0,1-3.137,4.488A1.689,1.689,0,0,0,212.48,86.5a34.072,34.072,0,0,0,3.97-5.863A1.689,1.689,0,0,0,216.471,79.084Z" transform="translate(-190.389 -64.176)"/></g><g transform="translate(508.366 482.929)"><path class="a" d="M181.49,197.825a1.689,1.689,0,0,0-2.387.084,3.551,3.551,0,1,1-5.2-4.842c.057-.061.116-.12.177-.177a1.689,1.689,0,1,0-2.3-2.471c-.119.111-.235.227-.345.345a6.929,6.929,0,0,0,5.063,11.653q.125,0,.251,0a6.883,6.883,0,0,0,4.825-2.2A1.689,1.689,0,0,0,181.49,197.825Z" transform="translate(-169.58 -189.966)"/></g><g transform="translate(494.52 467.418)"><path class="a" d="M41.312,38.923,2.884.495A1.689,1.689,0,0,0,.5,2.883L38.924,41.311a1.689,1.689,0,1,0,2.388-2.388Z" transform="translate(-0.001 0)"/></g></g></svg>