<svg xmlns="http://www.w3.org/2000/svg" viewBox="0 0 41.805 41.805"><defs><style>.a{fill:#0129ad;}</style></defs><g transform="translate(-360.531 -387.807)"><g transform="translate(360.531 387.807)"><path class="a" d="M35.847,0H5.959A5.965,5.965,0,0,0,0,5.959V35.847a5.965,5.965,0,0,0,5.959,5.959H35.847a5.965,5.965,0,0,0,5.959-5.958V5.959A5.965,5.965,0,0,0,35.847,0Zm2.581,35.847a2.584,2.584,0,0,1-2.581,2.581H5.959a2.584,2.584,0,0,1-2.581-2.581V5.959A2.584,2.584,0,0,1,5.959,3.377H35.847a2.584,2.584,0,0,1,2.581,2.581Z"/></g><g transform="translate(369.071 396.346)"><path class="a" d="M109.476,104.585a4.891,4.891,0,1,0,4.891,4.891A4.9,4.9,0,0,0,109.476,104.585Zm0,6.4a1.514,1.514,0,1,1,1.514-1.514A1.515,1.515,0,0,1,109.476,110.99Z" transform="translate(-104.585 -104.585)"/></g><g transform="translate(364.801 402.751)"><path class="a" d="M89.334,194.194,78.66,183.52a1.689,1.689,0,0,0-2.388,0L52.788,207a1.689,1.689,0,1,0,2.388,2.388l22.29-22.29,9.48,9.48a1.689,1.689,0,1,0,2.388-2.388Z" transform="translate(-52.293 -183.025)"/></g></g></svg>