<svg xmlns="http://www.w3.org/2000/svg" viewBox="0 0 41.805 41.805"><defs><style>.a{fill:#0129ad;}</style></defs><g transform="translate(-224.664 -387.807)"><g transform="translate(224.664 387.807)"><path class="a" d="M30.51,0H11.3A11.309,11.309,0,0,0,0,11.3V30.51a11.309,11.309,0,0,0,11.3,11.3H30.51a11.309,11.309,0,0,0,11.3-11.3V11.3A11.309,11.309,0,0,0,30.51,0Zm7.918,30.51a7.927,7.927,0,0,1-7.918,7.918H11.3A7.927,7.927,0,0,1,3.377,30.51V11.3A7.927,7.927,0,0,1,11.3,3.377H30.51A7.927,7.927,0,0,1,38.428,11.3Z"/></g><g transform="translate(236.274 399.252)"><path class="a" d="M160.834,148.171a9.373,9.373,0,1,0-9.293,10.751,9.5,9.5,0,0,0,1.395-.1,9.375,9.375,0,0,0,7.9-10.648Zm-8.393,7.307a6,6,0,1,1,5.052-6.812A5.956,5.956,0,0,1,152.44,155.478Z" transform="translate(-142.185 -140.171)"/></g><g transform="translate(254.446 396.453)"><path class="a" d="M367.624,106.388a1.689,1.689,0,1,0,.495,1.194A1.7,1.7,0,0,0,367.624,106.388Z" transform="translate(-364.741 -105.893)"/></g></g></svg>