<svg xmlns="http://www.w3.org/2000/svg" viewBox="0 0 41.197 41.807"><defs><style>.a{fill:#0129ad;}</style></defs><g transform="translate(-293.414 -171.512)"><g transform="translate(303.021 171.512)"><path class="a" d="M151.9,15.7a5.5,5.5,0,0,0-3.624-2.189,5.634,5.634,0,0,0-.883-.062h-9.177v-6A7.461,7.461,0,0,0,130.761,0a1.689,1.689,0,0,0-1.543,1L121.533,18.3a1.689,1.689,0,0,0-.146.686V40.117a1.689,1.689,0,0,0,1.689,1.689h21.717a5.532,5.532,0,0,0,5.469-4.7l2.652-17.295A5.5,5.5,0,0,0,151.9,15.7Zm-2.324,3.6-2.652,17.3a2.164,2.164,0,0,1-2.13,1.831H124.765V19.34L131.8,3.511a4.083,4.083,0,0,1,3.037,3.941v7.686a1.689,1.689,0,0,0,1.689,1.689H147.42a2.195,2.195,0,0,1,.348.024,2.154,2.154,0,0,1,1.807,2.45Z" transform="translate(-121.387)"/></g><g transform="translate(293.414 188.804)"><path class="a" d="M15.024,232.921H9.26a2.157,2.157,0,0,1-2.154-2.154v-13.45a2.156,2.156,0,0,1,2.154-2.154h5.764a1.689,1.689,0,1,0,0-3.377H9.26a5.538,5.538,0,0,0-5.532,5.532v13.45A5.538,5.538,0,0,0,9.26,236.3h5.764a1.689,1.689,0,0,0,0-3.378Z" transform="translate(-3.728 -211.786)"/></g></g></svg>