<svg xmlns="http://www.w3.org/2000/svg" viewBox="0 0 37.963 41.807"><defs><style>.a{fill:#0129ad;}</style></defs><g transform="translate(-92.961 -387.807)"><g transform="translate(92.961 405.099)"><path class="a" d="M55.963,211.786h-26.9a5.538,5.538,0,0,0-5.532,5.532v13.45a5.538,5.538,0,0,0,5.532,5.532h26.9a5.538,5.538,0,0,0,5.532-5.532v-13.45A5.538,5.538,0,0,0,55.963,211.786Zm2.154,18.981a2.156,2.156,0,0,1-2.154,2.154h-26.9a2.157,2.157,0,0,1-2.154-2.154v-13.45a2.156,2.156,0,0,1,2.154-2.154h26.9a2.156,2.156,0,0,1,2.154,2.154v13.45Z" transform="translate(-23.532 -211.786)"/></g><g transform="translate(100.647 387.807)"><path class="a" d="M128.955,0a11.309,11.309,0,0,0-11.3,11.3v7.686a1.689,1.689,0,1,0,3.377,0V11.3a7.918,7.918,0,1,1,15.837,0v7.686a1.689,1.689,0,0,0,3.377,0V11.3A11.309,11.309,0,0,0,128.955,0Z" transform="translate(-117.659)"/></g></g></svg>