<svg xmlns="http://www.w3.org/2000/svg" viewBox="0 0 41.805 38.313"><defs><style>.a{fill:#0129ad;}</style></defs><g transform="translate(-494.52 -315.869)"><g transform="translate(494.52 315.869)"><path class="a" d="M40.964,21.62a1.689,1.689,0,0,0-1.685-.006L27.837,28.153,14.671,21.57a1.689,1.689,0,0,0-1.593.044L.851,28.6A1.689,1.689,0,0,0,0,30.067V58.015a1.689,1.689,0,0,0,2.527,1.466l11.442-6.538,13.165,6.583a1.689,1.689,0,0,0,1.593-.044l12.227-6.987a1.689,1.689,0,0,0,.851-1.466V23.081A1.689,1.689,0,0,0,40.964,21.62ZM38.428,50.048,27.837,56.1,14.671,49.518a1.689,1.689,0,0,0-1.593.044l-9.7,5.543V31.047L13.969,25l13.165,6.583a1.689,1.689,0,0,0,1.593-.044l9.7-5.543V50.048Z" transform="translate(0 -21.392)"/></g><g transform="translate(506.747 315.869)"><path class="a" d="M151.437,21.393a1.689,1.689,0,0,0-1.689,1.689V51.029a1.689,1.689,0,1,0,3.377,0V23.082A1.689,1.689,0,0,0,151.437,21.393Z" transform="translate(-149.748 -21.393)"/></g><g transform="translate(520.72 322.856)"><path class="a" d="M322.577,106.963a1.689,1.689,0,0,0-1.689,1.689V136.6a1.689,1.689,0,1,0,3.377,0V108.652A1.689,1.689,0,0,0,322.577,106.963Z" transform="translate(-320.888 -106.963)"/></g></g></svg>