<svg xmlns="http://www.w3.org/2000/svg" viewBox="0 0 41.807 41.807"><defs><style>.a{fill:#0129ad;}</style></defs><g transform="translate(-424.139 -315.869)"><g transform="translate(424.139 315.869)"><path class="a" d="M12.363,0h-6.4A5.965,5.965,0,0,0,0,5.959v6.4a1.689,1.689,0,1,0,3.377,0v-6.4A2.584,2.584,0,0,1,5.959,3.377h6.4a1.689,1.689,0,1,0,0-3.377Z"/></g><g transform="translate(451.892 315.869)"><path class="a" d="M348,0h-6.4a1.689,1.689,0,1,0,0,3.377H348a2.584,2.584,0,0,1,2.581,2.581v6.4a1.689,1.689,0,1,0,3.377,0v-6.4A5.965,5.965,0,0,0,348,0Z" transform="translate(-339.903)"/></g><g transform="translate(451.892 343.623)"><path class="a" d="M352.266,339.9a1.689,1.689,0,0,0-1.689,1.689V348A2.584,2.584,0,0,1,348,350.578h-6.4a1.689,1.689,0,1,0,0,3.377H348A5.965,5.965,0,0,0,353.955,348v-6.4A1.689,1.689,0,0,0,352.266,339.9Z" transform="translate(-339.903 -339.903)"/></g><g transform="translate(424.139 343.623)"><path class="a" d="M12.363,350.578h-6.4A2.584,2.584,0,0,1,3.377,348v-6.4a1.689,1.689,0,0,0-3.377,0V348a5.965,5.965,0,0,0,5.959,5.958h6.4a1.689,1.689,0,1,0,0-3.377Z" transform="translate(0 -339.903)"/></g></g></svg>