<svg xmlns="http://www.w3.org/2000/svg" viewBox="0 0 41.805 28.996"><defs><style>.a{fill:#0129ad;}</style></defs><g transform="translate(-360.531 -315.869)"><g transform="translate(360.531 328.679)"><path class="a" d="M40.117,235.318H1.689a1.689,1.689,0,1,0,0,3.377H40.117a1.689,1.689,0,1,0,0-3.377Z" transform="translate(0 -235.318)"/></g><g transform="translate(360.531 315.869)"><path class="a" d="M40.117,78.439H1.689a1.689,1.689,0,0,0,0,3.377H40.117a1.689,1.689,0,0,0,0-3.377Z" transform="translate(0 -78.439)"/></g><g transform="translate(360.531 341.488)"><path class="a" d="M40.117,392.2H1.689a1.689,1.689,0,0,0,0,3.377H40.117a1.689,1.689,0,0,0,0-3.377Z" transform="translate(0 -392.197)"/></g></g></svg>