<svg xmlns="http://www.w3.org/2000/svg" viewBox="0 0 41.805 37.965"><defs><style>.a{fill:#0129ad;}</style></defs><g transform="translate(-159.424 -315.871)"><g transform="translate(159.424 315.871)"><path class="a" d="M36.274,23.532H5.532A5.538,5.538,0,0,0,0,29.064V48.278a5.538,5.538,0,0,0,5.532,5.532H36.274a5.538,5.538,0,0,0,5.532-5.532V29.064A5.538,5.538,0,0,0,36.274,23.532Zm2.154,24.746a2.156,2.156,0,0,1-2.154,2.154H5.532a2.156,2.156,0,0,1-2.154-2.154V29.064A2.156,2.156,0,0,1,5.532,26.91H36.274a2.156,2.156,0,0,1,2.154,2.154V48.278Z" transform="translate(0 -23.532)"/></g><g transform="translate(170.952 350.456)"><path class="a" d="M158.251,447.1H142.88a1.689,1.689,0,1,0,0,3.377h15.371a1.689,1.689,0,0,0,0-3.377Z" transform="translate(-141.191 -447.104)"/></g><g transform="translate(178.638 342.771)"><path class="a" d="M237.007,352.977a1.689,1.689,0,0,0-1.689,1.689v7.686a1.689,1.689,0,1,0,3.377,0v-7.686A1.689,1.689,0,0,0,237.007,352.977Z" transform="translate(-235.318 -352.977)"/></g></g></svg>