<svg xmlns="http://www.w3.org/2000/svg" viewBox="0 0 79.784 77.049"><defs><style>.a{fill:#0a61ff;}</style></defs><g transform="translate(-809.126 -727.537)"><path class="a" d="M195,141.5a5.5,5.5,0,1,0-5.5,5.5A5.5,5.5,0,0,0,195,141.5Zm-8.253,0a2.751,2.751,0,1,1,2.751,2.751A2.759,2.759,0,0,1,186.751,141.5Z" transform="translate(656.762 614.93)"/><path class="a" d="M291,237.5a5.5,5.5,0,1,0-5.5,5.5A5.5,5.5,0,0,0,291,237.5Zm-5.5,2.751a2.751,2.751,0,1,1,2.751-2.751A2.759,2.759,0,0,1,285.5,240.253Z" transform="translate(577.268 535.436)"/><path class="a" d="M220.083,150.075a1.38,1.38,0,0,0-1.943,0L198.075,170.14a1.374,1.374,0,0,0,1.943,1.943l20.065-20.065A1.38,1.38,0,0,0,220.083,150.075Z" transform="translate(645.438 603.606)"/><path class="a" d="M77.887,21.347,68.5,15.089h.275V5.461A1.38,1.38,0,0,0,67.4,4.085H60.521a1.38,1.38,0,0,0-1.375,1.375V8.848l-13-8.666a1.377,1.377,0,0,0-1.53,0L12.9,21.347A4.239,4.239,0,0,0,17.606,28.4l4.419-2.94v26.77H19.274A1.38,1.38,0,0,0,17.9,50.852H6.877A1.38,1.38,0,0,0,5.5,52.227H1.375A1.38,1.38,0,0,0,0,53.6H0a1.38,1.38,0,0,0,1.375,1.375H5.5V68.733H1.375A1.38,1.38,0,0,0,0,70.108H0a1.38,1.38,0,0,0,1.375,1.375H5.5a1.38,1.38,0,0,0,1.375,1.375h11a1.38,1.38,0,0,0,1.375-1.375v-.516l10.265,4.264a23.769,23.769,0,0,0,17.5.189l21.251-8.1a4.992,4.992,0,0,0,2.8-2.682,5.169,5.169,0,0,0,.086-3.955,5.1,5.1,0,0,0-2.39-2.631v-32.6l4.419,2.94a4.235,4.235,0,1,0,4.694-7.049ZM16.506,70.108H8.253V53.6h8.253ZM61.9,6.836h4.126v6.6L61.9,10.687Zm6.671,56.7A2.274,2.274,0,0,1,67.3,64.761l-21.251,8.1a21.012,21.012,0,0,1-15.474-.172L19.257,67.976v-13h3.49a29.506,29.506,0,0,1,13.136,3.095A9.738,9.738,0,0,0,40.216,59.1H50.893a2.064,2.064,0,0,1,.447,4.075c-.172.017-.361.052-.533.052H34.387v2.751H50.979a8.506,8.506,0,0,0,3.181-.671l11.5-4.883a2.137,2.137,0,0,1,1.719,0A2.3,2.3,0,0,1,68.62,61.7,2.434,2.434,0,0,1,68.568,63.54ZM50.893,56.354H40.216a6.966,6.966,0,0,1-3.112-.739A32.483,32.483,0,0,0,24.759,52.3V23.617L45.391,9.862,66.023,23.617V57.54a4.665,4.665,0,0,0-1.444.344l-8.923,3.783a4.9,4.9,0,0,0,.052-.5A4.817,4.817,0,0,0,50.893,56.354ZM75.549,26.368a1.542,1.542,0,0,1-.825-.241L46.148,7.077a1.377,1.377,0,0,0-1.53,0L16.059,26.11A1.493,1.493,0,0,1,14,25.7a1.542,1.542,0,0,1-.241-.825,1.48,1.48,0,0,1,.653-1.238L45.391,2.985,76.374,23.634a1.439,1.439,0,0,1,.653,1.238A1.493,1.493,0,0,1,75.549,26.368Z" transform="translate(809.126 727.588)"/><rect class="a" width="2.751" height="2.751" transform="translate(820.13 792.194)"/></g></svg>