<svg xmlns="http://www.w3.org/2000/svg" viewBox="0 0 10.369 17.27"><defs><style>.a{fill:#fff;}</style></defs><g transform="translate(-11.207 -7.844)"><g transform="translate(11.207 7.844)"><path class="a" d="M23.409,51.551a6.71,6.71,0,0,1-3.579-1.278c-.128-.1-.261-.2-.378-.31a1.073,1.073,0,0,1,1.214-1.749,2.092,2.092,0,0,1,.3.175,5.868,5.868,0,0,0,6.5.059,1.764,1.764,0,0,1,.634-.328,1,1,0,0,1,1.139.455.965.965,0,0,1-.069,1.269,5.254,5.254,0,0,1-1.892,1.223,8.879,8.879,0,0,1-2.148.481c.111.12.163.179.232.249.994,1,1.993,1.994,2.984,3a.987.987,0,0,1,.222,1.162,1.178,1.178,0,0,1-1.1.689,1.076,1.076,0,0,1-.7-.358c-.75-.755-1.515-1.5-2.25-2.266-.214-.224-.317-.181-.506.013-.755.777-1.522,1.542-2.294,2.3a.962.962,0,0,1-1.161.208,1.174,1.174,0,0,1-.678-1.081,1.082,1.082,0,0,1,.364-.726q1.476-1.474,2.947-2.952C23.253,51.721,23.314,51.652,23.409,51.551Z" transform="translate(-19.074 -39.387)"/><path class="a" d="M27.926,8.74a4.37,4.37,0,1,1,4.4-4.314A4.373,4.373,0,0,1,27.926,8.74ZM30.1,4.366A2.138,2.138,0,1,0,27.972,6.51,2.129,2.129,0,0,0,30.1,4.366Z" transform="translate(-22.776 0)"/></g></g></svg>