<svg xmlns="http://www.w3.org/2000/svg" viewBox="0 0 84.658 70.547"><defs><style>.a{fill:#0a61ff;}</style></defs><g transform="translate(-444.274 -885.053)"><g transform="translate(444.275 885.054)"><path class="a" d="M243.446,138.909a33.566,33.566,0,0,1,11.524.512,1.764,1.764,0,1,1-.747,3.448,30,30,0,0,0-10.3-.465,1.764,1.764,0,1,1-.479-3.494Z" transform="translate(-211.704 -122.763)"/><path class="a" d="M395.279,194.475a1.763,1.763,0,0,1,.7,2.394c-.139.254-.272.511-.393.765a1.764,1.764,0,1,1-3.18-1.527c.149-.311.311-.625.481-.935A1.763,1.763,0,0,1,395.279,194.475Z" transform="translate(-376.391 -169.193)"/><path class="a" d="M385.193,230.849a1.764,1.764,0,0,1,1.506,1.988,15.7,15.7,0,0,0,3.176,11.851,1.764,1.764,0,1,1-2.788,2.16,19.2,19.2,0,0,1-3.882-14.493A1.765,1.765,0,0,1,385.193,230.849Z" transform="translate(-368.918 -199.72)"/><path class="a" d="M5.263,72.655a5.212,5.212,0,0,1,2.134.456,23.6,23.6,0,0,1,7.829-14.118A31.2,31.2,0,0,1,31.08,52a7.055,7.055,0,1,1,13.334.056,40.876,40.876,0,0,1,8.51,2.312l8.936-7.738a1.764,1.764,0,0,1,2.909,1.157l1.182,11.743a20.046,20.046,0,0,1,9.891,12.777c.882,3.254,1.444,3.443,3.253,3.6,2.779.234,4.124,1.427,4.764,2.387a5.971,5.971,0,0,1,.36,5.317l-2.049,6.37c-.963,2.993-2.748,3.621-4.075,3.621h-1.96c-4.559,5.935-8.789,7.346-14.3,8.719.177,2.266.486,4.952.787,7.374h4.5a1.764,1.764,0,1,1,0,3.527H48.337a1.764,1.764,0,1,1,0-3.527h.673l-1.092-3.716A34.9,34.9,0,0,1,33.908,105q-.033.285-.067.576a42.236,42.236,0,0,0-.4,5.834,1.764,1.764,0,0,1-1.763,1.806H15.335a1.764,1.764,0,1,1,0-3.527H19.2c-1.583-6.4-4.545-12.862-6.658-15.59A26.164,26.164,0,0,1,7,77.946a1.737,1.737,0,1,0-3.474,0A1.79,1.79,0,0,0,4.04,79.2a1.764,1.764,0,1,1-2.5,2.485,5.3,5.3,0,0,1,3.727-9.027ZM37.757,46.2a3.527,3.527,0,1,0,3.527,3.527A3.531,3.531,0,0,0,37.757,46.2ZM15.326,91.942c2.815,3.634,5.982,11.194,7.495,17.75h7.108c.065-1.592.244-3.125.408-4.522.106-.9.205-1.755.262-2.524a1.764,1.764,0,0,1,2.229-1.569c6.522,1.8,11.3,2.148,15.967,1.153a1.763,1.763,0,0,1,2.06,1.228l1.832,6.235H59.07c-.358-2.917-.718-6.159-.853-8.638a1.764,1.764,0,0,1,1.343-1.809c6.151-1.5,9.864-2.405,14.264-8.448a1.764,1.764,0,0,1,1.426-.725h2.844c.251,0,.543-.633.717-1.174l2.049-6.37a2.864,2.864,0,0,0,.063-2.281,2.846,2.846,0,0,0-2.124-.828c-4.029-.34-5.344-2.437-6.361-6.187A16.608,16.608,0,0,0,63.479,62.2a1.765,1.765,0,0,1-.944-1.39L61.6,51.522l-7.187,6.223a1.763,1.763,0,0,1-1.847.289A38.131,38.131,0,0,0,42.082,55.3a7.032,7.032,0,0,1-8.7-.039c-11.188,1.224-22.854,7.778-22.854,22.69A22.665,22.665,0,0,0,15.326,91.942Z" transform="translate(0.001 -42.673)"/><path class="a" d="M118.554,213.259a1.764,1.764,0,1,1-1.764,1.764A1.767,1.767,0,0,1,118.554,213.259Z" transform="translate(-54.97 -185.053)"/><path class="a" d="M266.5,447.994h1.646a1.764,1.764,0,0,1,0,3.527H266.5a1.764,1.764,0,0,1,0-3.527Z" transform="translate(-229.026 -380.975)"/></g></g></svg>