<svg xmlns="http://www.w3.org/2000/svg" viewBox="0 0 41.805 41.805"><defs><style>.a{fill:#0129ad;}</style></defs><g transform="translate(-559.842 -239.691)"><g transform="translate(559.842 239.691)"><path class="a" d="M35.847,0H5.959A5.965,5.965,0,0,0,0,5.959V35.847a5.965,5.965,0,0,0,5.959,5.959H35.847a5.965,5.965,0,0,0,5.959-5.958V5.959A5.965,5.965,0,0,0,35.847,0Zm2.581,35.847a2.584,2.584,0,0,1-2.581,2.581H5.959a2.584,2.584,0,0,1-2.581-2.581V5.959A2.584,2.584,0,0,1,5.959,3.377H35.847a2.584,2.584,0,0,1,2.581,2.581Z"/></g><g transform="translate(579.056 250.366)"><path class="a" d="M237.007,130.732a1.689,1.689,0,0,0-1.689,1.689V149.5a1.689,1.689,0,1,0,3.377,0V132.421A1.689,1.689,0,0,0,237.007,130.732Z" transform="translate(-235.318 -130.732)"/></g><g transform="translate(570.516 258.905)"><path class="a" d="M149.5,235.318H132.421a1.689,1.689,0,1,0,0,3.377H149.5a1.689,1.689,0,1,0,0-3.377Z" transform="translate(-130.732 -235.318)"/></g></g></svg>