<svg xmlns="http://www.w3.org/2000/svg" viewBox="0 0 41.805 41.805"><defs><style>.a{fill:#0129ad;}</style></defs><g transform="translate(-628.676 -239.691)"><g transform="translate(628.676 239.691)"><path class="a" d="M35.683,6.122A20.9,20.9,0,1,0,6.122,35.683,20.9,20.9,0,1,0,35.683,6.122ZM20.9,38.428A17.525,17.525,0,1,1,38.428,20.9,17.545,17.545,0,0,1,20.9,38.428Z"/></g><g transform="translate(647.89 251.22)"><path class="a" d="M237.007,141.191a1.689,1.689,0,0,0-1.689,1.689v15.371a1.689,1.689,0,0,0,3.377,0V142.88A1.689,1.689,0,0,0,237.007,141.191Z" transform="translate(-235.318 -141.191)"/></g><g transform="translate(640.204 258.905)"><path class="a" d="M158.251,235.318H142.88a1.689,1.689,0,1,0,0,3.377h15.371a1.689,1.689,0,1,0,0-3.377Z" transform="translate(-141.191 -235.318)"/></g></g></svg>