<svg xmlns="http://www.w3.org/2000/svg" viewBox="0 0 41.805 41.805"><defs><style>.a{fill:#0129ad;}</style></defs><g transform="translate(-424.139 -239.691)"><g transform="translate(431.824 239.691)"><path class="a" d="M118.873,0H95.816a1.689,1.689,0,0,0-1.689,1.689v13.45a1.689,1.689,0,0,0,3.377,0V3.377h19.679V15.138a1.689,1.689,0,0,0,3.377,0V1.689A1.689,1.689,0,0,0,118.873,0Z" transform="translate(-94.127)"/></g><g transform="translate(424.139 253.141)"><path class="a" d="M36.274,164.722H5.532A5.538,5.538,0,0,0,0,170.254v9.607a5.538,5.538,0,0,0,5.532,5.532H9.374a1.689,1.689,0,0,0,0-3.377H5.532a2.156,2.156,0,0,1-2.154-2.154v-9.607A2.156,2.156,0,0,1,5.532,168.1H36.274a2.156,2.156,0,0,1,2.154,2.154v9.607a2.156,2.156,0,0,1-2.154,2.154H32.431a1.689,1.689,0,1,0,0,3.377h3.843a5.538,5.538,0,0,0,5.532-5.532v-9.607A5.538,5.538,0,0,0,36.274,164.722Z" transform="translate(0 -164.722)"/></g><g transform="translate(431.824 262.748)"><path class="a" d="M118.873,282.381H95.816a1.689,1.689,0,0,0-1.689,1.689v15.371a1.689,1.689,0,0,0,1.689,1.689h23.057a1.689,1.689,0,0,0,1.689-1.689V284.07A1.689,1.689,0,0,0,118.873,282.381Zm-1.689,15.371H97.5V285.759h19.679v11.994Z" transform="translate(-94.127 -282.381)"/></g></g></svg>