<svg xmlns="http://www.w3.org/2000/svg" viewBox="0 0 41.805 37.977"><defs><style>.a{fill:#0129ad;}</style></defs><g transform="translate(-224.664 -241.568)"><g transform="translate(224.664 243.481)"><path class="a" d="M13.215,58.406H3.377V48.569a1.689,1.689,0,1,0-3.377,0V60.095a1.689,1.689,0,0,0,1.689,1.689H13.215a1.689,1.689,0,1,0,0-3.377Z" transform="translate(0 -46.88)"/></g><g transform="translate(224.664 241.568)"><path class="a" d="M40.717,36.133A18.978,18.978,0,0,0,16.511,24.54a19.094,19.094,0,0,0-7.083,4.45l-8.9,8.359A1.689,1.689,0,1,0,2.845,39.81l8.914-8.376L11.8,31.4A15.6,15.6,0,1,1,8.1,47.623a1.689,1.689,0,0,0-3.185,1.122,18.978,18.978,0,0,0,35.016,1.891A18.854,18.854,0,0,0,40.717,36.133Z" transform="translate(0 -23.451)"/></g></g></svg>