<svg xmlns="http://www.w3.org/2000/svg" viewBox="0 0 41.764 39.922"><defs><style>.a{fill:#0129ad;}</style></defs><g transform="translate(-559.842 -756.898)"><path class="a" d="M41.723,26.667a1.689,1.689,0,0,0-1.362-1.15L27.962,23.7,22.417,12.472a1.689,1.689,0,0,0-3.029,0L13.844,23.7l-12.4,1.812A1.689,1.689,0,0,0,.51,28.4l8.971,8.737L7.364,49.479a1.689,1.689,0,0,0,2.45,1.78L20.9,45.428l11.088,5.831a1.689,1.689,0,0,0,2.45-1.78L32.324,37.135C41.755,27.95,41.921,27.279,41.723,26.667Z" transform="translate(559.842 745.367)"/></g></svg>