<svg xmlns="http://www.w3.org/2000/svg" viewBox="0 0 37.955 41.805"><defs><style>.a{fill:#0129ad;}</style></defs><g transform="translate(-92.961 -171.512)"><g transform="translate(92.961 188.81)"><path class="a" d="M56.008,211.85H29.115a5.537,5.537,0,0,0-5.531,5.531v13.446a5.537,5.537,0,0,0,5.531,5.531H56.008a5.537,5.537,0,0,0,5.53-5.531V217.381A5.537,5.537,0,0,0,56.008,211.85Zm2.153,18.977a2.156,2.156,0,0,1-2.153,2.153H29.115a2.156,2.156,0,0,1-2.153-2.153V217.381a2.156,2.156,0,0,1,2.153-2.153H56.008a2.156,2.156,0,0,1,2.153,2.153v13.446Z" transform="translate(-23.584 -211.85)"/></g><g transform="translate(100.645 171.512)"><path class="a" d="M140.05,9.046A11.293,11.293,0,0,0,128.982,0h-.011a11.293,11.293,0,0,0-11.282,11.3v7.684a1.689,1.689,0,1,0,3.377,0V11.3a7.916,7.916,0,0,1,7.908-7.924h.008a7.94,7.94,0,0,1,7.758,6.341,1.689,1.689,0,0,0,3.31-.672Z" transform="translate(-117.689)"/></g></g></svg>