<svg xmlns="http://www.w3.org/2000/svg" viewBox="0 0 16.595 9.391"><defs><style>.a{fill:#fff;fill-rule:evenodd;}</style></defs><g transform="translate(-8.716 -12.25)"><path class="a" d="M14.282,72.029a22.592,22.592,0,0,1,1.625,1.635,4.751,4.751,0,0,1,.583.839c.224.434.021.911-.368.937H13.7a1.866,1.866,0,0,1-1.539-.626c-.335-.341-.645-.7-.967-1.056a2.289,2.289,0,0,0-.435-.387.505.505,0,0,0-.805.2A2.54,2.54,0,0,0,9.7,74.694c-.026.569-.2.719-.77.745A6.182,6.182,0,0,1,5.475,74.7a7.643,7.643,0,0,1-2.328-2.179A29.341,29.341,0,0,1,.084,67.056c-.193-.43-.052-.662.423-.67.789-.015,1.577-.014,2.367,0a.7.7,0,0,1,.657.491,14.672,14.672,0,0,0,1.6,2.973,2.535,2.535,0,0,0,.606.666.368.368,0,0,0,.626-.184,2.063,2.063,0,0,0,.139-.623,9.285,9.285,0,0,0-.039-2.185.911.911,0,0,0-.776-.833c-.231-.044-.2-.13-.085-.262a.869.869,0,0,1,.741-.369H9.079c.43.085.526.278.585.711l0,3.035c0,.168.084.665.385.776.242.079.4-.114.546-.267a9.411,9.411,0,0,0,1.538-2.364c.185-.374.344-.762.5-1.149a.585.585,0,0,1,.618-.423l2.63,0a1.388,1.388,0,0,1,.232.014c.443.076.565.266.428.7A6.566,6.566,0,0,1,15.5,68.9c-.439.607-.908,1.193-1.342,1.8-.4.557-.368.838.129,1.322Zm0,0" transform="translate(8.715 -53.809)"/></g></svg>