<svg xmlns="http://www.w3.org/2000/svg" viewBox="0 0 27.832 41.805"><defs><style>.a{fill:#0129ad;}</style></defs><g transform="translate(-501.543 -105.047)"><g transform="translate(501.543 112.034)"><path class="a" d="M99.486,85.57A13.916,13.916,0,1,0,113.4,99.486,13.932,13.932,0,0,0,99.486,85.57Zm0,24.454a10.538,10.538,0,1,1,10.538-10.538A10.55,10.55,0,0,1,99.486,110.024Z" transform="translate(-85.57 -85.57)"/></g><g transform="translate(513.77 119.021)"><path class="a" d="M240.821,179.5,238.7,177.37V172.83a1.689,1.689,0,1,0-3.377,0v5.24a1.689,1.689,0,0,0,.495,1.194l2.62,2.62a1.689,1.689,0,1,0,2.388-2.388Z" transform="translate(-235.318 -171.141)"/></g><g transform="translate(505.875 133.606)"><path class="a" d="M156.239,349.771A1.689,1.689,0,0,0,154.4,351.3l-.612,6.692a1.8,1.8,0,0,1-1.8,1.642H144.41a1.792,1.792,0,0,1-1.8-1.644l-.611-6.69a1.689,1.689,0,0,0-3.363.307l.611,6.688a5.182,5.182,0,0,0,5.154,4.716h7.6a5.182,5.182,0,0,0,5.161-4.714l.611-6.69A1.689,1.689,0,0,0,156.239,349.771Z" transform="translate(-138.624 -349.764)"/></g><g transform="translate(505.892 105.047)"><path class="a" d="M158,11.4l-.611-6.688A5.182,5.182,0,0,0,152.231,0H144.61a5.182,5.182,0,0,0-5.156,4.714l-.611,6.69a1.689,1.689,0,0,0,3.363.307l.611-6.692a1.8,1.8,0,0,1,1.794-1.642h7.613a1.8,1.8,0,0,1,1.8,1.644l.611,6.69a1.689,1.689,0,0,0,1.68,1.535c.051,0,.1,0,.156-.007A1.689,1.689,0,0,0,158,11.4Z" transform="translate(-138.836)"/></g></g></svg>